<?xml version="1.0" standalone="no"?>
<!DOCTYPE svg PUBLIC "-//W3C//DTD SVG 20010904//EN"
 "http://www.w3.org/TR/2001/REC-SVG-20010904/DTD/svg10.dtd">
<svg version="1.0" xmlns="http://www.w3.org/2000/svg"
 width="3264.000000pt" height="3264.000000pt" viewBox="0 0 3264.000000 3264.000000"
 preserveAspectRatio="xMidYMid meet">
<metadata>
Created by potrace 1.16, written by Peter Selinger 2001-2019
</metadata>
<g transform="translate(0.000000,3264.000000) scale(0.100000,-0.100000)"
fill="#000000" stroke="none">
<path d="M15487 28103 c-1 0 -119 -3 -262 -6 -247 -5 -304 -11 -325 -38 -3 -3
-92 -9 -199 -13 -146 -5 -200 -10 -217 -21 -16 -10 -66 -17 -166 -21 -79 -3
-160 -10 -180 -14 -22 -4 -38 -4 -38 1 0 5 -17 9 -38 9 -27 0 -48 -8 -68 -25
-22 -19 -40 -25 -75 -25 -26 0 -81 -11 -123 -25 -42 -14 -98 -25 -125 -25 -39
0 -50 -4 -53 -18 -5 -16 -20 -20 -109 -25 -96 -6 -146 -16 -191 -38 -26 -13
-76 -11 -80 3 -3 8 -15 2 -34 -15 -33 -31 -39 -32 -78 -12 -32 17 -46 19 -46
6 0 -5 9 -11 20 -14 31 -8 24 -27 -10 -27 -16 0 -30 5 -30 10 0 16 -21 11 -75
-15 -27 -14 -60 -25 -72 -25 -12 0 -25 -4 -28 -10 -3 -5 -14 -10 -23 -10 -9 0
-30 -7 -47 -16 -16 -9 -42 -16 -57 -15 -15 1 -29 -3 -33 -9 -3 -5 -10 -10 -16
-10 -14 0 -11 28 4 33 9 4 9 7 0 17 -17 19 -180 14 -210 -5 -25 -17 -53 -20
-53 -6 0 11 -31 24 -38 16 -3 -3 4 -14 16 -25 40 -38 24 -66 -32 -56 -22 4
-37 15 -45 32 -7 16 -18 24 -28 22 -28 -5 -26 -33 2 -46 39 -18 29 -46 -18
-50 -22 -2 -41 -10 -46 -20 -24 -45 -82 -93 -118 -99 -21 -3 -43 -12 -50 -20
-8 -10 -21 -13 -37 -9 -14 3 -28 1 -31 -4 -4 -6 -12 -10 -18 -9 -27 3 -57 -14
-57 -32 0 -13 -7 -19 -23 -19 -20 0 -23 4 -19 30 3 23 0 30 -13 30 -30 0 -55
-20 -55 -44 0 -13 -7 -26 -15 -30 -8 -3 -15 -12 -15 -21 0 -11 -11 -15 -44
-15 -36 0 -49 -5 -64 -25 -15 -18 -29 -25 -55 -25 -38 0 -87 -18 -87 -31 0 -5
-19 -12 -41 -15 -29 -5 -43 -13 -46 -25 -4 -12 -14 -19 -31 -19 -40 0 -102
-22 -102 -37 0 -17 -37 -17 -43 0 -5 15 -44 -17 -52 -44 -5 -14 -16 -19 -41
-19 -20 0 -42 -8 -53 -19 -11 -11 -38 -25 -60 -31 -23 -6 -41 -17 -41 -24 0
-8 -16 -16 -40 -20 -21 -3 -48 -16 -59 -27 -11 -12 -24 -18 -30 -15 -19 12
-61 -6 -67 -29 -4 -18 -14 -24 -44 -27 -37 -3 -38 -3 -38 32 0 19 -3 51 -7 71
-7 35 -9 37 -58 43 -95 11 -97 10 -97 -30 0 -31 3 -35 20 -29 11 3 29 3 41 0
17 -6 20 -13 17 -45 -3 -34 0 -40 19 -45 13 -3 23 -11 23 -18 0 -17 -71 -38
-101 -30 -23 6 -23 6 -6 -11 17 -18 17 -19 0 -32 -25 -19 -36 -17 -51 6 -16
27 -32 17 -32 -21 0 -16 -4 -29 -10 -29 -5 0 -12 -11 -16 -25 -5 -21 -12 -25
-44 -25 -22 0 -42 -5 -45 -10 -4 -7 -12 -7 -25 0 -30 16 -60 13 -53 -6 11 -29
-20 -66 -76 -90 -29 -13 -63 -24 -75 -24 -27 0 -66 -27 -66 -46 0 -8 -7 -14
-15 -14 -9 0 -18 -6 -21 -14 -3 -8 -25 -23 -48 -34 -23 -11 -48 -27 -55 -36
-8 -9 -19 -16 -25 -16 -18 0 -76 -57 -76 -74 0 -11 -10 -16 -34 -16 -19 0 -41
-7 -50 -15 -8 -8 -19 -15 -24 -15 -6 0 -12 -6 -15 -12 -3 -10 -11 -9 -34 3
-24 13 -33 14 -46 4 -23 -17 -21 -35 4 -35 12 0 19 -5 16 -12 -2 -8 -22 -13
-51 -13 -26 0 -50 -5 -54 -11 -4 -6 -17 -16 -29 -23 -13 -6 -23 -18 -23 -25 0
-7 -8 -22 -18 -34 -16 -18 -23 -20 -61 -11 -24 5 -57 17 -73 25 -22 11 -33 13
-41 5 -19 -19 -43 -12 -55 14 -14 30 -38 33 -47 5 -3 -11 -10 -20 -14 -20 -4
0 -22 -18 -40 -40 -23 -29 -28 -40 -16 -40 8 0 15 7 15 15 0 8 5 15 11 15 6 0
20 11 31 25 22 28 44 31 72 10 11 -8 39 -15 63 -15 59 0 66 -21 22 -66 -19
-19 -51 -44 -72 -55 -30 -16 -40 -28 -49 -64 -8 -29 -18 -45 -28 -45 -8 0 -28
-11 -44 -25 -16 -14 -35 -25 -41 -25 -7 0 -18 -6 -24 -14 -6 -7 -30 -16 -52
-19 -51 -7 -56 -12 -33 -34 16 -17 16 -18 1 -21 -9 -2 -17 -8 -17 -13 0 -15
-22 -10 -35 8 -14 19 -35 10 -35 -16 0 -31 -31 -81 -50 -81 -10 0 -20 -7 -24
-15 -3 -8 -18 -15 -34 -15 -31 0 -79 -53 -108 -120 -14 -31 -23 -37 -67 -48
-46 -11 -53 -10 -64 4 -20 27 -36 5 -30 -42 4 -36 1 -44 -14 -49 -11 -4 -19
-12 -19 -20 0 -8 -12 -15 -27 -17 -24 -2 -28 -7 -26 -30 1 -21 -3 -28 -16 -28
-9 0 -22 -5 -29 -12 -9 -9 -12 -6 -12 15 0 22 -4 27 -25 27 -31 0 -42 -23 -25
-54 14 -28 0 -56 -51 -96 -17 -14 -46 -39 -64 -56 -43 -42 -73 -51 -90 -27
-13 17 -15 17 -42 -7 -15 -14 -29 -28 -31 -32 -2 -5 -14 -8 -27 -8 -31 0 -52
-26 -38 -48 17 -29 46 -21 55 15 8 30 11 32 41 26 17 -3 34 -8 37 -10 2 -2
-17 -22 -43 -44 -26 -22 -47 -46 -47 -54 0 -22 -30 -26 -55 -7 -18 12 -24 27
-25 54 0 28 -5 40 -22 49 -13 7 -27 18 -31 25 -9 16 -37 19 -37 3 0 -6 5 -20
11 -31 8 -14 8 -23 0 -31 -14 -14 -14 -82 -1 -107 5 -10 21 -21 35 -24 29 -7
35 -43 8 -53 -22 -7 -93 -79 -93 -93 0 -6 -11 -8 -25 -4 -20 5 -25 2 -25 -13
0 -12 -11 -25 -26 -32 -23 -10 -26 -16 -21 -46 5 -32 4 -35 -19 -35 -19 0 -24
-5 -24 -24 0 -18 -6 -25 -22 -28 -15 -2 -24 -11 -26 -25 -3 -17 -10 -23 -28
-23 -17 0 -24 -6 -24 -20 0 -10 -9 -24 -20 -30 -11 -6 -20 -17 -20 -26 0 -8
-11 -19 -25 -24 -14 -5 -25 -16 -25 -24 0 -8 -8 -17 -18 -20 -10 -4 -33 -25
-50 -49 -18 -23 -57 -64 -87 -91 -30 -27 -55 -54 -55 -61 0 -17 -39 -95 -48
-95 -5 0 -12 4 -18 9 -9 10 -13 -6 -17 -66 -1 -13 -8 -23 -15 -23 -7 0 -18
-11 -24 -25 -6 -14 -16 -25 -21 -25 -6 0 -25 -15 -43 -34 -22 -23 -45 -36 -66
-38 -28 -2 -37 -11 -58 -49 -14 -25 -35 -61 -47 -79 -12 -18 -25 -55 -28 -81
-4 -27 -11 -51 -16 -55 -5 -3 -9 -14 -9 -25 0 -14 -7 -19 -25 -19 -20 0 -25
-5 -25 -25 0 -14 -8 -29 -19 -34 -10 -6 -22 -27 -26 -47 -5 -27 -9 -34 -18
-25 -6 6 -19 11 -29 11 -26 0 -24 40 2 47 24 6 27 38 4 47 -21 8 -34 -1 -34
-22 0 -10 -10 -22 -22 -27 -29 -13 -29 -37 -1 -50 24 -10 37 -57 23 -83 -6 -9
-14 -29 -19 -43 -10 -28 -64 -47 -85 -30 -6 4 -23 11 -39 15 -23 5 -29 3 -37
-19 -12 -31 -40 -33 -58 -4 -11 16 -16 19 -25 10 -9 -9 -7 -16 11 -29 24 -19
22 -46 -4 -56 -23 -9 -16 -35 21 -88 30 -41 35 -55 29 -83 -5 -31 -8 -33 -31
-24 -32 12 -43 4 -43 -28 0 -55 -31 -127 -64 -148 -18 -12 -32 -31 -34 -45 -2
-14 -8 -29 -13 -35 -5 -5 -9 -16 -9 -25 0 -9 -9 -25 -21 -36 -12 -10 -28 -36
-36 -56 -8 -21 -21 -38 -28 -38 -7 0 -18 -7 -26 -16 -10 -13 -10 -19 0 -36 11
-17 10 -22 -7 -34 -11 -7 -22 -28 -26 -47 -3 -18 -15 -40 -26 -50 -11 -9 -20
-29 -20 -45 0 -21 -7 -32 -25 -40 -16 -7 -25 -20 -25 -34 0 -12 -9 -31 -20
-43 -12 -12 -24 -40 -27 -61 -4 -26 -18 -49 -41 -71 -19 -18 -36 -33 -38 -33
-2 0 -4 23 -4 50 0 34 -4 50 -13 50 -22 0 -49 -41 -54 -81 -5 -38 -5 -39 25
-39 17 0 33 -4 36 -8 10 -17 -16 -102 -35 -112 -11 -6 -19 -21 -19 -35 0 -18
-5 -25 -20 -25 -24 0 -44 -34 -32 -56 5 -8 6 -28 4 -45 -4 -29 -20 -37 -38
-19 -6 6 -10 -9 -10 -45 0 -45 -4 -58 -21 -70 -13 -9 -23 -31 -27 -60 -6 -40
-9 -44 -26 -35 -23 13 -30 -4 -30 -77 0 -41 -5 -59 -17 -68 -11 -8 -18 -31
-21 -72 -4 -58 -5 -59 -32 -55 -33 5 -46 -20 -35 -68 4 -20 2 -35 -8 -45 -8
-8 -18 -33 -22 -56 -4 -23 -16 -50 -26 -60 -10 -10 -19 -27 -19 -36 -1 -19
-23 -53 -35 -53 -4 0 -5 28 -4 61 3 50 1 64 -13 73 -14 8 -22 7 -35 -7 -14
-14 -18 -34 -18 -93 0 -71 2 -77 28 -98 34 -27 39 -86 8 -86 -24 0 -32 -19
-19 -44 6 -11 6 -21 1 -25 -5 -3 -15 -32 -22 -63 -7 -31 -20 -74 -30 -94 -11
-21 -16 -44 -14 -52 3 -7 -4 -22 -16 -33 -14 -13 -21 -32 -21 -56 0 -37 -12
-82 -36 -141 -8 -18 -14 -58 -14 -89 0 -49 -4 -60 -26 -78 -17 -14 -27 -33
-31 -63 -3 -26 -11 -42 -19 -42 -10 0 -11 -6 -3 -26 12 -32 4 -61 -24 -92 -19
-21 -20 -25 -6 -50 21 -38 13 -81 -17 -94 -13 -6 -26 -19 -29 -30 -6 -18 -25
-26 -25 -10 0 5 -12 14 -26 21 -48 21 -60 -10 -19 -49 14 -13 25 -29 25 -37 0
-7 9 -13 20 -13 15 0 20 -7 20 -29 0 -17 -4 -32 -9 -35 -11 -7 -22 -80 -23
-161 -1 -48 -5 -63 -21 -77 -18 -14 -22 -31 -27 -135 -4 -84 -11 -129 -24
-158 -15 -31 -20 -72 -24 -184 -4 -119 -7 -148 -22 -163 -13 -14 -19 -45 -24
-126 -4 -59 -14 -132 -22 -162 -10 -37 -17 -137 -21 -307 -3 -139 -9 -253 -13
-253 -22 0 -32 -175 -37 -625 -5 -491 0 -587 33 -642 17 -27 19 -169 4 -209
-6 -16 -7 -31 -1 -38 5 -6 11 -95 13 -198 3 -125 9 -192 17 -201 7 -9 14 -65
18 -133 5 -93 11 -128 27 -159 15 -28 23 -67 27 -130 13 -189 31 -329 45 -342
8 -8 14 -21 14 -29 0 -7 9 -19 20 -26 16 -10 20 -24 20 -70 0 -32 -7 -72 -16
-91 -16 -33 -16 -35 5 -56 26 -26 27 -42 1 -64 -22 -19 -25 -33 -10 -42 14 -8
13 -92 -1 -101 -8 -4 -7 -9 2 -15 24 -15 29 -10 29 29 0 20 4 43 9 51 12 19
31 5 31 -23 0 -13 9 -35 20 -49 26 -33 26 -67 1 -67 -23 0 -45 -25 -36 -40 4
-6 18 -15 31 -20 33 -13 30 -36 -6 -55 -21 -11 -30 -23 -30 -40 0 -26 3 -27
77 -55 26 -10 33 -19 39 -53 3 -23 14 -47 23 -53 22 -17 33 -198 12 -219 -19
-19 -7 -42 26 -49 18 -4 37 -19 49 -39 19 -32 42 -140 43 -207 1 -20 7 -42 13
-49 7 -6 13 -26 13 -44 0 -27 4 -32 25 -32 23 0 26 -5 32 -55 18 -154 21 -210
9 -210 -6 0 0 -12 14 -27 14 -15 25 -38 25 -50 0 -16 8 -25 24 -29 15 -3 29
-17 35 -34 11 -32 6 -40 -24 -40 -12 0 -24 -3 -28 -6 -9 -9 33 -74 48 -74 7 0
20 -3 29 -6 12 -4 16 0 16 15 0 14 6 21 19 21 16 0 20 -9 23 -62 3 -46 0 -68
-11 -81 -13 -16 -12 -19 8 -33 16 -11 21 -24 19 -44 -3 -34 17 -60 48 -60 31
0 37 -14 23 -54 -11 -30 -10 -41 6 -78 10 -24 27 -52 37 -64 10 -11 18 -26 18
-33 0 -7 15 -27 34 -44 27 -26 33 -38 29 -60 -6 -33 11 -57 42 -57 15 0 25 -8
29 -22 11 -41 6 -77 -11 -86 -15 -9 -14 -11 5 -21 14 -8 23 -25 28 -56 5 -38
10 -45 29 -45 15 0 25 8 30 23 6 19 8 15 17 -23 5 -25 14 -50 19 -57 6 -6 7
-23 3 -37 -9 -35 9 -54 46 -48 24 3 30 1 30 -14 0 -9 -7 -26 -16 -36 -16 -17
-15 -19 10 -44 18 -18 26 -37 26 -61 0 -27 5 -35 25 -43 31 -12 31 -17 3 -39
-26 -22 -17 -40 16 -34 27 6 37 -6 51 -61 10 -38 20 -48 58 -60 11 -3 17 -15
17 -34 0 -16 9 -41 20 -55 11 -14 20 -35 20 -47 0 -18 5 -21 24 -18 20 4 25 0
31 -26 3 -17 7 -53 9 -81 4 -70 29 -115 64 -115 36 0 48 -9 56 -45 16 -67 18
-99 6 -134 -8 -26 -9 -44 -1 -63 9 -24 16 -28 51 -28 39 0 40 -1 46 -40 6 -36
9 -40 36 -40 26 0 28 2 18 21 -23 43 13 65 55 33 20 -15 20 -15 -3 -34 -14
-11 -18 -21 -12 -25 6 -4 18 -1 26 6 13 10 17 10 25 -2 5 -8 9 -20 9 -27 0 -7
4 -20 9 -30 5 -9 12 -25 15 -35 3 -10 19 -23 36 -28 23 -8 31 -19 36 -47 4
-19 18 -46 31 -58 20 -19 23 -26 13 -43 -12 -23 2 -35 31 -29 29 6 12 -27 -18
-37 -18 -5 -36 -18 -39 -28 -11 -34 19 -50 96 -52 39 -2 74 -5 77 -9 4 -3 14
-6 24 -6 10 0 19 -10 23 -25 4 -14 13 -25 20 -25 15 0 26 -30 26 -76 0 -36 12
-49 56 -58 24 -5 34 -14 40 -38 6 -20 21 -37 44 -49 23 -13 41 -33 52 -59 10
-22 24 -43 33 -46 9 -4 15 -18 15 -35 0 -22 5 -29 20 -29 25 0 38 -44 19 -66
-11 -14 -10 -18 6 -30 10 -8 34 -14 53 -14 41 0 62 -19 62 -57 0 -41 14 -57
43 -49 27 6 37 -7 37 -50 0 -16 11 -31 36 -46 35 -23 84 -108 84 -148 0 -12
13 -22 43 -32 39 -12 42 -16 45 -52 2 -28 9 -40 23 -43 10 -3 19 -9 19 -14 0
-15 -22 -21 -33 -10 -14 14 -57 14 -57 1 0 -16 52 -59 72 -60 9 0 25 11 36 25
25 31 38 32 46 2 4 -17 17 -27 46 -36 45 -13 57 -30 41 -59 -8 -16 -6 -21 15
-31 14 -6 36 -11 49 -11 30 0 34 -26 8 -46 -28 -21 2 -17 48 7 23 11 43 18 45
16 3 -2 7 -28 11 -56 5 -43 10 -54 29 -62 13 -4 24 -12 24 -17 0 -5 19 -24 41
-42 35 -28 45 -31 60 -22 37 24 40 18 41 -101 0 -36 3 -40 44 -57 28 -13 44
-26 44 -37 1 -29 33 -61 65 -65 19 -2 31 -9 33 -21 3 -16 -1 -17 -30 -12 -25
5 -38 2 -47 -9 -24 -28 -3 -37 70 -30 44 4 73 3 82 -4 7 -6 34 -12 61 -14 31
-2 51 -8 56 -18 21 -46 29 -55 50 -58 43 -7 72 -33 65 -59 -12 -49 -1 -58 73
-60 37 -1 79 -6 92 -12 l25 -9 -32 -12 c-54 -20 -39 -36 37 -41 19 -2 41 0 48
5 18 11 15 -19 -3 -34 -11 -9 -13 -16 -5 -24 7 -7 14 -5 22 6 9 11 24 14 51
11 30 -4 37 -9 37 -28 0 -12 8 -33 19 -46 10 -13 21 -34 25 -45 5 -16 17 -23
51 -28 25 -3 65 -15 90 -26 24 -11 49 -20 56 -20 7 0 8 -7 4 -17 -12 -33 -10
-38 17 -35 19 2 30 -4 38 -18 15 -27 4 -60 -20 -60 -24 0 -26 -4 -34 -63 -7
-44 -6 -48 18 -57 48 -18 74 11 40 45 -23 22 -11 44 24 43 16 -1 34 2 41 6 15
10 41 -12 41 -34 0 -10 -9 -20 -20 -23 -11 -3 -20 -13 -20 -22 0 -18 21 -15
72 11 39 20 69 18 75 -6 3 -12 14 -20 27 -20 11 0 30 -7 40 -15 11 -8 35 -15
54 -15 31 0 33 -2 28 -28 -5 -22 1 -34 30 -64 19 -21 42 -38 51 -38 8 0 28
-11 44 -24 20 -17 47 -26 86 -31 32 -3 65 -7 73 -8 10 -1 16 -16 18 -40 3 -29
7 -37 23 -37 14 0 19 -7 19 -30 0 -23 4 -30 20 -30 15 0 20 7 20 29 l0 28 50
-10 c42 -8 50 -13 50 -32 0 -26 15 -41 52 -50 14 -4 28 -15 31 -26 4 -14 14
-19 36 -19 21 0 34 -6 38 -17 10 -26 23 -33 67 -33 22 0 54 -5 71 -11 26 -10
31 -16 27 -38 -2 -17 3 -32 12 -40 19 -16 21 -42 4 -60 -11 -10 -6 -11 25 -6
25 5 42 3 54 -6 9 -8 28 -15 42 -15 91 -5 175 -19 186 -31 8 -7 23 -13 34 -13
12 0 30 -9 40 -19 28 -28 54 -40 96 -45 21 -3 57 -19 81 -35 23 -17 46 -31 52
-31 5 0 17 -9 27 -20 10 -11 30 -20 45 -20 30 0 50 -16 50 -42 0 -27 26 -35
141 -41 109 -7 159 -18 159 -37 0 -5 -10 -10 -22 -10 -13 0 -30 -5 -38 -10
-13 -9 -13 -11 0 -20 26 -17 48 -11 70 20 27 37 52 38 76 3 29 -45 43 -51 161
-58 109 -7 113 -8 113 -30 0 -28 16 -42 54 -47 20 -2 35 -12 45 -32 15 -27 20
-28 99 -32 45 -2 91 -8 102 -14 12 -6 28 -10 38 -8 9 1 29 -5 43 -15 18 -12
48 -17 102 -18 63 -1 77 -4 82 -18 9 -29 68 -50 208 -72 60 -10 77 -17 77 -30
0 -28 21 -37 100 -42 41 -3 91 -9 110 -12 19 -3 54 -8 78 -11 36 -4 42 -9 42
-28 0 -22 6 -24 98 -35 53 -7 142 -17 197 -22 94 -10 107 -14 161 -54 8 -6 21
-5 37 4 16 8 43 11 78 7 169 -18 169 -17 169 -78 0 -20 4 -39 9 -42 14 -9 170
-10 268 -2 74 6 92 11 96 25 4 16 23 18 184 20 l180 2 16 -24 c14 -21 26 -25
104 -31 48 -4 120 -9 158 -11 151 -6 1441 -8 1461 -1 12 3 33 2 48 -4 22 -8
30 -6 46 10 11 11 32 20 46 20 14 0 33 9 42 20 16 19 32 20 202 24 343 7 571
28 605 56 6 5 29 12 52 16 32 5 41 3 46 -10 4 -9 16 -16 27 -16 27 0 16 18
-18 31 -22 8 -24 12 -12 19 22 12 70 15 107 6 18 -4 39 -3 50 3 10 6 66 14
126 19 59 5 110 12 114 15 3 4 1 18 -5 32 -12 25 -11 25 41 25 l52 0 -34 -21
c-44 -26 -28 -44 37 -40 14 1 22 7 22 20 0 30 29 46 91 48 32 0 62 4 67 7 11
6 148 28 197 31 62 3 65 5 65 29 0 20 6 24 40 30 28 4 53 18 81 46 39 38 44
40 105 40 35 0 75 -5 89 -12 21 -10 29 -8 48 9 26 24 105 38 240 42 23 1 22
21 -2 21 -25 0 -49 28 -30 34 35 12 120 23 184 25 77 3 95 12 95 47 0 31 10
35 93 38 40 1 81 7 93 14 12 6 34 10 50 9 26 -2 29 1 29 28 0 26 5 30 41 41
62 18 81 31 88 59 6 22 12 25 49 25 23 0 74 9 112 20 38 11 82 20 97 20 30 0
35 9 17 27 -19 19 0 33 45 33 23 0 46 3 49 6 13 13 113 43 144 44 17 0 34 4
37 9 3 5 18 12 33 16 14 3 38 15 51 26 19 15 41 19 94 19 85 0 112 12 104 46
-9 34 18 94 43 94 10 0 21 6 24 13 4 10 7 9 18 -1 17 -16 46 -16 56 1 4 6 24
20 45 31 30 15 48 17 105 11 78 -8 87 -2 96 55 10 62 20 95 31 102 21 14 65 8
75 -9 9 -17 11 -17 38 3 15 11 54 33 85 48 32 16 60 37 63 48 10 28 32 21 39
-12 4 -23 11 -30 30 -30 29 0 41 14 51 58 l7 33 68 -7 68 -6 4 37 c4 39 -10
55 -53 55 -17 0 -20 4 -15 23 3 12 6 28 6 35 0 6 8 12 19 12 10 0 35 11 55 25
20 14 43 25 51 25 7 0 17 9 20 20 4 12 15 20 28 20 16 0 18 -3 9 -12 -7 -7
-12 -20 -12 -31 0 -11 -11 -22 -31 -29 -27 -9 -49 -40 -49 -69 0 -17 112 -10
132 8 15 13 23 14 44 5 13 -7 37 -12 52 -11 26 0 27 1 5 11 -28 13 -40 47 -22
59 8 5 39 9 70 9 61 0 75 9 88 57 8 30 41 45 41 19 0 -9 6 -16 13 -16 8 0 12
20 12 67 0 44 4 68 13 71 7 2 12 20 12 43 0 33 3 39 21 39 33 0 56 17 64 47 9
38 20 43 98 43 54 0 67 -3 67 -16 0 -9 6 -14 12 -12 15 5 20 94 8 118 -13 26
0 80 21 80 10 0 20 4 24 9 12 20 70 41 112 41 47 0 48 1 32 32 -14 27 2 38 58
38 23 0 45 5 48 10 3 6 21 10 38 10 45 0 59 12 52 42 -5 21 -11 24 -36 20 -28
-4 -30 -2 -27 19 2 16 11 25 26 27 14 2 22 10 22 23 0 20 15 26 25 9 12 -19
44 -11 47 13 3 20 9 22 58 22 68 0 77 6 85 54 5 33 11 40 36 45 37 7 37 24 -1
37 -16 6 -30 15 -30 20 0 5 26 16 58 25 31 9 63 21 70 26 18 15 15 38 -5 38
-14 0 -15 2 -4 12 11 11 14 10 18 0 3 -9 16 -11 39 -6 22 4 34 2 34 -5 0 -15
47 -44 60 -36 14 9 -6 45 -26 45 -9 0 -14 6 -12 13 3 7 28 13 63 15 74 4 89
15 82 63 -3 21 0 42 6 48 8 8 7 11 -5 11 -9 0 -23 3 -32 6 -11 4 -16 1 -16
-10 0 -9 -7 -16 -15 -16 -8 0 -15 7 -15 15 0 19 31 55 48 55 7 0 24 11 38 25
14 14 34 25 44 25 12 0 20 7 21 18 1 27 61 104 105 134 21 14 40 32 40 40 1 7
2 18 3 24 0 7 9 15 19 18 9 3 28 13 42 21 14 8 40 15 58 15 36 0 41 22 6 28
-36 7 -39 21 -5 33 23 8 36 22 48 50 12 31 22 41 53 49 21 6 43 17 50 25 7 8
20 15 30 15 13 0 17 6 13 19 -3 11 5 34 19 53 12 18 24 34 24 36 1 2 11 -3 23
-10 21 -13 29 -48 11 -48 -5 0 -10 -13 -10 -29 0 -21 6 -30 22 -34 12 -4 27
-2 33 3 6 5 27 7 47 4 32 -6 36 -4 42 20 9 36 1 46 -37 46 -42 0 -53 9 -61 45
-13 57 -12 60 22 70 35 10 41 20 17 29 -26 9 -17 33 25 66 22 17 48 45 57 61
11 18 26 29 39 29 12 0 30 3 39 6 15 6 15 8 -1 25 -18 20 -13 49 8 49 8 0 19
-13 25 -30 8 -22 18 -30 35 -30 16 0 19 3 10 9 -21 13 -42 61 -42 95 0 26 6
35 34 50 22 12 40 32 50 55 8 21 25 42 40 49 20 9 26 19 26 42 0 20 5 30 15
30 8 0 19 9 25 20 6 11 17 20 25 20 7 0 21 8 31 17 9 9 35 19 58 23 39 5 41 7
41 40 0 24 6 37 20 45 29 15 85 71 85 84 0 6 -11 17 -25 23 -30 14 -31 22 -5
50 18 20 21 20 38 5 18 -16 20 -16 35 1 22 24 21 32 -3 32 -11 0 -20 -4 -20
-10 0 -5 -4 -10 -10 -10 -20 0 -7 42 27 89 2 2 14 -2 28 -9 26 -14 34 -40 13
-41 -7 0 -3 -4 10 -9 12 -5 22 -14 22 -20 0 -5 14 -10 30 -10 25 0 30 4 30 23
0 28 25 53 63 62 22 6 25 10 16 21 -6 8 -17 14 -24 14 -21 0 -35 47 -28 96 5
36 11 48 29 55 21 7 22 12 14 34 -12 31 5 65 32 65 16 0 18 -11 18 -99 0 -59
4 -102 10 -106 18 -11 40 16 40 50 0 18 7 38 14 45 8 6 20 35 27 64 10 45 9
57 -5 85 -10 17 -14 41 -11 51 4 11 2 20 -3 20 -5 0 -12 -9 -15 -20 -6 -23
-47 -28 -47 -6 0 37 18 67 80 134 24 27 30 42 30 78 0 30 4 44 13 44 20 0 50
37 51 63 1 30 34 70 73 91 17 8 34 24 38 35 3 12 19 21 40 25 38 7 46 21 32
52 -7 16 -5 28 8 47 10 15 17 46 17 74 0 55 11 73 44 73 26 0 26 2 26 67 -1
24 5 46 13 53 8 7 17 27 21 46 4 22 18 42 40 59 19 14 34 33 34 42 0 9 8 49
18 89 l17 72 46 6 c66 9 91 44 104 146 6 47 18 80 30 80 7 0 18 6 24 14 10 11
7 17 -10 29 -19 14 -20 21 -14 66 6 46 10 51 40 61 36 12 54 45 36 63 -15 15
-14 47 4 81 8 15 15 42 15 60 1 24 8 36 33 52 25 16 31 26 29 48 -4 40 15 59
54 51 57 -10 65 45 12 83 -19 14 -25 42 -8 42 14 0 50 85 50 119 0 15 4 31 9
36 6 6 11 30 13 55 3 43 5 45 36 48 34 3 43 27 20 50 -10 10 -10 17 1 34 15
24 41 138 41 180 0 14 4 28 9 30 16 6 71 117 65 132 -3 9 0 32 7 53 7 21 12
64 11 96 -1 46 2 61 18 74 11 10 23 33 26 53 4 19 15 51 25 70 10 19 21 69 25
110 4 41 13 82 20 91 8 8 20 51 28 95 7 43 21 96 30 117 8 21 18 60 22 88 7
54 24 67 24 19 0 -38 27 -41 36 -5 4 18 1 32 -11 45 -16 18 -16 22 -1 66 10
31 14 65 10 98 -6 58 9 94 27 64 5 -10 22 -18 36 -18 l26 0 -7 73 c-6 59 -11
76 -31 92 -23 19 -24 24 -18 110 3 50 12 99 19 110 23 37 37 109 45 240 4 72
13 157 18 190 6 33 13 165 17 293 4 127 10 232 14 232 4 0 10 28 14 63 4 34
11 78 16 97 10 40 14 684 6 930 -5 144 -8 167 -24 180 -17 14 -19 39 -25 300
-3 186 -9 295 -17 315 -7 17 -12 62 -11 102 0 40 -3 74 -8 78 -5 3 -13 55 -17
116 -5 91 -10 115 -25 127 -28 24 -23 42 11 42 32 0 50 22 50 64 0 20 -5 25
-31 28 -43 4 -61 54 -66 182 -3 64 -10 107 -19 121 -8 12 -12 29 -8 38 3 9 1
32 -6 51 -8 26 -8 41 0 56 7 13 7 20 0 20 -5 0 -10 -7 -10 -15 0 -8 -7 -15
-16 -15 -12 0 -15 13 -14 68 1 38 -5 84 -14 107 -8 22 -15 55 -16 73 0 51 -28
137 -50 157 -13 12 -20 31 -20 57 0 49 -36 211 -55 248 -8 16 -20 30 -26 32
-6 2 -15 43 -20 92 -5 49 -14 95 -20 103 -7 8 -9 32 -6 59 4 42 2 49 -29 79
-19 19 -34 45 -34 57 0 13 -6 55 -14 93 -25 127 -26 155 -6 155 25 0 31 21 14
51 -7 13 -13 43 -14 67 0 24 -5 52 -10 63 -13 23 -62 26 -80 4 -19 -22 -25
-19 -45 25 -10 22 -22 40 -27 40 -4 0 -7 20 -7 43 1 24 -1 49 -5 55 -3 5 -2
22 4 37 8 20 7 27 -5 32 -19 7 -45 66 -45 103 0 21 -6 29 -24 34 -23 6 -36 37
-36 92 0 12 -7 29 -15 38 -18 18 -19 56 -3 91 9 21 9 31 -1 47 -8 13 -10 34
-6 58 9 54 -7 78 -52 82 -36 3 -38 5 -46 47 -5 27 -5 59 1 83 10 37 9 40 -14
48 -14 6 -27 17 -30 25 -4 8 -13 15 -20 15 -8 0 -20 11 -26 25 -8 17 -19 25
-37 25 -14 1 -37 10 -50 21 -20 16 -25 30 -25 68 0 44 -1 47 -23 43 -20 -4
-23 0 -23 27 0 21 -9 40 -26 56 -21 20 -24 27 -14 44 10 19 8 22 -19 27 -22 5
-30 13 -35 35 -3 16 -3 36 0 44 4 9 -4 23 -20 36 -31 25 -35 59 -6 59 11 0 20
-4 20 -10 0 -5 15 -10 33 -10 20 0 39 -8 50 -20 10 -12 22 -18 27 -15 17 11
11 24 -14 31 -13 3 -26 15 -29 26 -5 18 -11 19 -82 13 l-77 -8 3 49 c3 41 0
53 -19 72 -18 18 -22 30 -17 51 5 25 2 29 -19 35 -15 3 -26 13 -26 22 0 8 -7
17 -15 20 -8 3 -17 16 -21 27 -9 32 -34 57 -56 57 -13 0 -18 7 -18 28 0 15 -7
40 -15 56 -8 15 -15 39 -15 52 0 15 -7 27 -17 30 -54 17 -66 40 -29 54 30 11
32 22 9 46 -16 15 -16 17 1 30 11 7 23 15 28 16 18 6 -4 37 -34 47 -28 10 -31
9 -41 -19 -14 -37 -24 -38 -37 -5 -5 14 -21 30 -35 35 -32 12 -32 38 0 46 14
3 25 10 25 14 0 15 -31 20 -50 8 -16 -11 -23 -9 -40 10 -11 12 -25 22 -30 22
-15 0 -12 48 3 53 8 4 6 6 -4 6 -22 1 -53 37 -46 55 3 8 16 16 28 18 30 4 37
28 10 35 -17 4 -21 13 -21 42 0 47 -14 61 -62 61 -33 0 -38 3 -38 23 0 36 -27
67 -60 67 -31 0 -39 8 -57 60 -11 31 -10 37 7 55 11 12 20 34 20 48 0 34 23
44 53 25 22 -15 22 -14 25 38 l2 54 -30 0 c-48 0 -68 -15 -63 -45 5 -23 2 -25
-31 -25 -43 0 -49 21 -10 39 35 16 23 25 -34 28 -26 1 -56 3 -67 4 -11 1 -27
-1 -36 -5 -19 -8 -83 33 -87 58 -2 10 2 22 10 27 10 7 9 9 -4 9 -13 0 -21 13
-29 45 -10 40 -13 43 -31 34 -23 -12 -21 -14 -42 28 -21 41 -20 43 8 43 16 0
32 11 46 31 13 17 33 35 47 40 27 10 23 29 -7 29 -10 0 -20 7 -24 15 -3 8 -18
20 -32 26 -38 14 -52 -2 -30 -36 16 -24 15 -27 -6 -58 -13 -17 -24 -34 -25
-36 -1 -2 -10 2 -18 9 -10 8 -15 25 -13 44 2 25 -1 32 -19 34 -12 2 -27 10
-33 18 -7 8 -23 14 -35 14 -26 0 -58 41 -65 85 -4 26 -9 30 -33 27 -19 -2 -29
3 -34 15 -4 10 -13 24 -20 31 -7 7 -13 20 -13 28 0 9 -11 14 -29 14 -23 0 -30
5 -35 26 -4 15 -2 32 3 37 6 6 11 21 11 33 0 16 7 24 23 26 17 2 21 9 19 28
-3 32 -17 39 -77 41 -27 1 -63 3 -78 3 -16 1 -31 7 -35 13 -4 7 -20 16 -35 22
-15 6 -27 17 -27 25 0 17 -56 66 -76 66 -19 0 -18 24 2 41 14 12 14 14 -2 26
-10 7 -26 13 -36 13 -10 0 -18 5 -18 10 0 6 -13 10 -30 10 -23 0 -30 5 -30 19
0 29 -39 71 -66 71 -18 0 -24 5 -24 23 0 20 -20 38 -82 72 -10 5 -18 14 -18
18 0 5 -11 22 -25 39 -21 25 -24 36 -18 73 l6 45 -32 0 c-24 0 -31 4 -31 20 0
16 7 20 30 20 34 0 39 14 11 30 -25 13 -27 13 -43 -3 -7 -7 -25 -18 -40 -24
-16 -7 -28 -19 -28 -27 0 -12 -5 -12 -26 -3 -23 11 -25 16 -20 57 2 25 8 59
11 76 8 37 -8 47 -56 37 -22 -4 -34 -14 -41 -34 -5 -16 -14 -26 -20 -23 -5 3
-7 12 -4 20 3 9 -4 16 -20 20 -13 3 -29 15 -35 25 -5 11 -19 19 -29 19 -13 0
-20 7 -20 20 0 13 -10 24 -25 30 -35 13 -31 28 8 32 28 3 32 7 35 35 3 27 -1
35 -22 44 -40 18 -60 5 -53 -36 7 -40 -11 -47 -41 -17 -10 10 -26 21 -35 25
-22 8 -22 26 1 43 14 10 15 15 4 26 -11 11 -15 10 -25 -3 -17 -23 -77 -14 -77
11 0 32 -12 51 -37 61 -23 8 -23 10 -9 31 25 35 19 46 -26 51 -98 12 -168 32
-168 47 0 10 33 22 46 18 5 -2 11 2 13 7 2 6 -19 11 -49 12 -29 2 -59 8 -66
14 -20 17 -17 47 6 59 30 16 15 30 -31 30 -40 0 -48 11 -30 39 6 10 19 12 41
7 36 -7 60 7 60 34 0 20 -19 30 -56 30 -14 0 -24 6 -24 14 0 21 -17 29 -46 22
-31 -8 -31 -24 2 -36 33 -13 28 -41 -9 -55 -23 -7 -30 -6 -38 7 -5 8 -25 19
-44 22 -42 8 -46 33 -11 70 16 18 22 34 18 51 -3 18 0 25 12 25 9 0 16 8 16
20 0 15 -7 20 -29 20 -17 0 -33 5 -36 10 -7 11 -74 14 -99 4 -9 -3 -16 -12
-16 -20 0 -9 -11 -14 -29 -14 -21 0 -32 -6 -36 -20 -6 -18 -12 -20 -43 -14
-48 9 -52 11 -52 35 0 15 -7 19 -34 19 -18 0 -39 7 -46 15 -13 16 -11 18 43
29 24 6 27 11 27 46 l0 40 -44 0 c-26 0 -48 -6 -56 -15 -19 -22 -86 -19 -110
5 -11 11 -26 20 -34 20 -21 0 -29 17 -11 24 21 7 19 35 -2 43 -10 4 -30 19
-45 35 -28 30 -72 37 -82 13 -3 -9 -18 -15 -36 -15 -25 0 -30 4 -30 25 0 21
-5 25 -30 25 -16 0 -30 4 -30 9 0 21 -33 41 -68 41 -32 0 -34 1 -18 13 10 7
16 22 14 33 -3 18 -13 20 -63 12 -13 -2 -24 6 -33 25 -8 16 -20 31 -28 34 -21
8 -17 40 6 46 25 7 38 42 32 90 -6 52 -60 96 -97 79 -14 -6 -38 -9 -55 -6
l-30 7 0 -68 0 -67 -27 6 c-16 4 -35 15 -43 24 -9 10 -31 18 -57 18 -24 1 -49
9 -58 18 -9 9 -32 16 -51 16 -28 0 -35 4 -40 25 -6 24 -22 31 -68 26 -10 0
-29 10 -42 24 -16 18 -33 25 -59 25 -24 0 -35 5 -35 15 0 8 -20 23 -44 33 -24
11 -47 25 -50 31 -4 6 -25 11 -48 11 -39 0 -40 1 -35 28 5 27 5 27 -46 27 -56
0 -73 16 -31 27 26 7 74 45 74 59 0 14 -45 18 -81 8 -32 -10 -35 -14 -31 -42
4 -28 3 -29 -19 -22 -13 4 -43 10 -66 12 -30 4 -43 10 -46 24 -3 11 -14 19
-26 19 -11 0 -28 11 -37 24 -12 20 -26 26 -62 28 -36 2 -47 7 -52 23 -4 15
-15 21 -43 22 -45 3 -97 31 -97 53 0 11 -2 12 -8 3 -13 -20 -140 -5 -147 17
-7 21 -34 30 -92 30 -32 0 -45 5 -53 19 -6 13 -26 22 -55 27 -28 4 -45 11 -45
20 0 7 -16 16 -37 19 -21 4 -55 15 -75 26 -22 12 -67 23 -108 26 -59 5 -70 9
-70 24 0 13 -10 20 -35 25 -30 5 -35 10 -35 35 0 36 -17 38 -26 4 -7 -28 -26
-31 -65 -11 -14 7 -52 17 -83 20 -39 5 -60 13 -70 27 -10 15 -33 23 -82 30
-37 5 -74 15 -81 21 -8 6 -53 14 -100 16 -72 4 -89 8 -110 28 -18 16 -39 25
-67 26 -23 0 -60 2 -83 3 -26 0 -50 8 -63 20 -22 19 -25 20 -197 24 -35 1 -43
5 -43 19 0 18 -37 42 -65 42 -8 0 -15 8 -15 18 -1 16 -1 16 -11 0 -12 -22 -48
-23 -96 -3 -25 10 -71 15 -153 15 -90 0 -120 3 -130 14 -6 8 -28 20 -48 27
-20 7 -40 16 -43 21 -3 4 -19 3 -37 -3 -40 -14 -160 -7 -237 14 -44 12 -132
18 -332 23 -150 4 -273 10 -273 13 0 10 -52 29 -100 35 -37 6 -908 14 -913 9z
m1028 -91 c116 -4 216 -12 224 -17 17 -10 266 -34 359 -35 35 0 75 -6 90 -14
15 -7 81 -19 148 -25 66 -7 145 -18 175 -27 30 -8 91 -19 136 -24 46 -6 109
-17 140 -25 32 -8 90 -18 128 -22 39 -3 81 -11 95 -18 14 -7 67 -20 117 -29
51 -8 105 -22 120 -29 16 -8 60 -17 99 -21 39 -3 85 -13 103 -22 18 -9 51 -18
74 -21 23 -3 53 -11 67 -18 14 -7 60 -20 103 -29 42 -8 90 -22 105 -30 15 -7
47 -17 72 -21 25 -4 63 -15 85 -25 22 -10 63 -21 90 -25 28 -4 57 -13 65 -20
8 -8 38 -19 65 -26 28 -7 59 -18 70 -25 11 -6 36 -15 55 -19 19 -4 51 -15 70
-25 19 -9 52 -20 73 -24 21 -4 52 -15 70 -26 18 -10 51 -21 74 -25 23 -4 47
-13 53 -20 6 -8 26 -17 43 -20 18 -4 46 -15 63 -25 17 -10 46 -21 64 -25 18
-4 53 -18 78 -31 25 -13 51 -24 58 -24 7 0 34 -11 60 -25 26 -14 53 -25 60
-25 6 0 36 -12 66 -26 29 -15 71 -35 93 -45 22 -10 84 -38 137 -63 53 -25 101
-46 106 -46 5 0 25 -11 45 -24 19 -13 49 -27 66 -31 17 -3 33 -10 36 -15 3 -5
48 -30 100 -55 52 -26 98 -51 101 -56 3 -5 13 -9 23 -9 10 0 35 -13 56 -30 21
-16 46 -30 56 -30 11 0 19 -6 19 -13 0 -25 -101 -107 -150 -122 -14 -4 -35
-18 -47 -31 -12 -13 -30 -24 -39 -24 -9 0 -27 -11 -40 -25 -13 -14 -32 -25
-43 -25 -11 0 -28 -9 -38 -19 -10 -11 -44 -33 -75 -49 -31 -17 -81 -48 -110
-71 -30 -23 -60 -41 -66 -41 -6 0 -23 -11 -39 -24 -15 -13 -39 -27 -53 -31
-14 -4 -33 -16 -43 -26 -10 -11 -23 -19 -30 -19 -7 0 -35 -20 -62 -45 -28 -25
-55 -45 -61 -45 -6 0 -21 -11 -33 -24 -13 -13 -35 -27 -49 -31 -33 -8 -127
-68 -163 -104 -25 -24 -103 -78 -183 -126 -51 -31 -90 -58 -101 -69 -19 -20
-84 -66 -93 -66 -6 0 -50 -33 -99 -72 -95 -78 -148 -118 -159 -118 -3 0 -22
-13 -41 -30 -18 -16 -39 -30 -47 -30 -7 0 -33 -20 -58 -44 -26 -24 -55 -47
-65 -50 -10 -3 -34 -21 -53 -39 -19 -18 -61 -50 -93 -71 -31 -21 -63 -47 -70
-57 -7 -10 -25 -23 -40 -28 -17 -7 -27 -18 -27 -31 0 -11 -4 -20 -8 -20 -5 0
-19 -9 -32 -20 -13 -11 -29 -20 -36 -20 -7 0 -19 -8 -26 -18 -7 -10 -29 -29
-48 -42 -19 -13 -54 -41 -77 -62 -24 -21 -46 -38 -51 -38 -4 0 -23 -15 -42
-33 -19 -18 -69 -62 -110 -97 -41 -36 -82 -72 -91 -80 -39 -36 -112 -96 -127
-105 -20 -12 -64 -50 -145 -127 -33 -32 -64 -58 -69 -58 -4 0 -30 -21 -57 -47
-81 -79 -204 -195 -251 -238 -25 -22 -54 -50 -65 -63 -11 -12 -54 -52 -95 -88
-41 -36 -85 -81 -97 -100 -13 -18 -37 -41 -53 -49 -16 -9 -38 -28 -47 -43 -10
-15 -25 -32 -34 -39 -9 -7 -60 -55 -113 -108 -53 -52 -100 -95 -104 -95 -4 0
-16 -15 -26 -32 -10 -18 -58 -71 -105 -118 -47 -47 -99 -103 -116 -124 -16
-21 -46 -54 -65 -72 -79 -77 -106 -105 -125 -130 -11 -15 -50 -59 -87 -98
-100 -108 -128 -140 -128 -152 0 -6 -11 -16 -25 -22 -13 -6 -33 -29 -44 -51
-11 -21 -32 -48 -45 -59 -14 -11 -30 -31 -36 -46 -5 -14 -25 -34 -45 -43 -22
-11 -35 -24 -35 -36 0 -11 -25 -42 -55 -70 -30 -27 -55 -56 -55 -62 0 -7 -6
-18 -14 -25 -8 -6 -16 -23 -18 -38 -2 -15 -12 -31 -24 -37 -35 -17 -53 -36
-69 -69 -8 -17 -25 -36 -37 -41 -13 -6 -29 -23 -36 -40 -23 -53 -28 -59 -53
-65 -15 -4 -25 -14 -27 -28 -2 -12 -8 -22 -13 -22 -13 0 -11 -34 3 -48 17 -17
-15 -27 -41 -13 -31 17 -38 14 -45 -20 -6 -29 -58 -89 -77 -89 -17 0 -89 -40
-89 -49 0 -5 -9 -20 -20 -33 -38 -45 -105 -131 -142 -182 -20 -28 -43 -58 -51
-66 -8 -8 -19 -25 -26 -37 -6 -13 -23 -34 -36 -47 -14 -14 -25 -32 -25 -41 0
-8 -5 -15 -10 -15 -6 0 -13 -8 -17 -17 -4 -10 -18 -32 -32 -50 -58 -72 -76
-97 -83 -115 -4 -10 -12 -18 -18 -18 -5 0 -10 -6 -10 -13 0 -7 -13 -28 -30
-47 -16 -19 -29 -39 -30 -44 0 -4 -11 -22 -25 -40 -45 -56 -55 -71 -78 -105
-12 -19 -29 -44 -37 -56 -15 -23 -38 -58 -55 -86 -33 -55 -96 -147 -112 -164
-10 -11 -25 -32 -33 -47 -8 -14 -25 -44 -37 -66 -12 -22 -26 -42 -30 -44 -13
-5 -73 -100 -73 -114 0 -6 -6 -14 -14 -17 -8 -3 -20 -22 -27 -41 -7 -20 -17
-36 -21 -36 -5 0 -17 -20 -28 -45 -11 -25 -24 -45 -30 -45 -5 0 -10 -6 -10
-14 0 -7 -21 -44 -46 -81 -25 -38 -53 -82 -62 -98 -9 -17 -29 -51 -44 -76 -15
-25 -34 -59 -43 -76 -9 -16 -29 -50 -45 -75 -17 -25 -39 -63 -51 -85 -11 -22
-31 -58 -45 -80 -13 -22 -34 -60 -47 -85 -34 -64 -66 -119 -110 -192 -21 -34
-40 -72 -43 -85 -4 -13 -10 -23 -14 -23 -5 0 -16 -21 -26 -47 -10 -27 -23 -55
-30 -63 -6 -8 -15 -26 -19 -40 -4 -14 -16 -36 -25 -50 -10 -14 -25 -41 -34
-60 -8 -19 -20 -42 -26 -50 -5 -8 -14 -26 -20 -40 -5 -14 -14 -32 -20 -40 -5
-8 -16 -31 -25 -50 -8 -19 -19 -42 -24 -50 -13 -20 -38 -68 -53 -104 -7 -16
-29 -61 -50 -100 -20 -39 -52 -105 -72 -146 -20 -41 -47 -96 -61 -121 -14 -26
-25 -54 -25 -62 0 -8 -8 -25 -18 -38 -11 -13 -22 -37 -26 -53 -4 -16 -16 -41
-27 -54 -10 -14 -19 -30 -19 -37 0 -7 -13 -39 -30 -70 -16 -31 -30 -65 -30
-75 0 -10 -7 -23 -15 -30 -8 -7 -20 -30 -26 -53 -6 -22 -17 -46 -24 -53 -7 -8
-16 -32 -20 -54 -4 -22 -12 -43 -19 -47 -18 -11 -36 -47 -36 -71 0 -11 -6 -25
-14 -31 -8 -6 -19 -33 -26 -59 -6 -26 -17 -54 -24 -62 -8 -8 -19 -33 -26 -55
-7 -22 -21 -53 -31 -70 -11 -16 -19 -40 -19 -53 0 -13 -9 -35 -20 -50 -11 -15
-23 -45 -27 -66 -3 -22 -14 -47 -23 -56 -9 -9 -20 -36 -24 -59 -3 -23 -15 -50
-25 -60 -10 -10 -21 -39 -25 -65 -4 -25 -11 -46 -16 -46 -10 0 -30 -56 -30
-86 0 -12 -6 -29 -14 -37 -16 -16 -70 -147 -81 -197 -4 -19 -16 -45 -26 -58
-10 -13 -21 -43 -25 -68 -3 -24 -10 -44 -14 -44 -12 0 -29 -47 -36 -100 -4
-30 -12 -50 -19 -50 -17 0 -25 -23 -25 -74 0 -30 -6 -48 -20 -61 -11 -10 -23
-34 -26 -54 -4 -20 -18 -53 -31 -73 -12 -21 -23 -53 -23 -72 0 -19 -4 -36 -8
-38 -5 -1 -15 -21 -24 -43 l-16 -40 -12 29 c-12 33 3 87 23 83 15 -3 21 43 8
56 -6 6 -11 26 -11 44 0 29 -3 33 -25 33 -20 0 -25 5 -25 25 0 24 -2 25 -70
25 -63 0 -70 2 -70 20 0 15 -7 20 -24 20 -14 0 -28 5 -31 10 -9 14 -25 12 -25
-3 0 -22 -60 -8 -85 19 -21 23 -29 24 -144 24 l-121 0 0 25 c0 23 -3 25 -50
25 -47 0 -50 2 -50 25 0 25 0 25 -95 25 -95 0 -95 0 -95 25 0 23 -4 25 -45 25
-38 0 -45 3 -45 20 0 17 -7 20 -50 20 -47 0 -50 2 -50 25 0 23 -4 25 -45 25
-41 0 -45 2 -45 25 0 23 -3 25 -50 25 -47 0 -50 2 -50 25 0 24 -2 25 -70 25
-63 0 -70 2 -70 20 0 19 -7 20 -95 20 -95 0 -95 0 -95 25 0 23 -3 25 -50 25
-47 0 -50 2 -50 25 0 24 -2 25 -70 25 -68 0 -70 1 -70 25 0 24 -2 25 -70 25
-63 0 -70 2 -70 20 0 19 -7 20 -120 20 l-120 0 0 47 c0 67 -35 103 -102 103
-41 0 -48 3 -48 20 0 18 -7 20 -70 20 -68 0 -70 1 -70 25 0 25 0 25 -95 25
-95 0 -95 0 -95 25 0 23 -4 25 -45 25 -41 0 -45 2 -45 25 0 21 -5 25 -28 25
-17 0 -38 10 -52 25 -23 24 -27 25 -167 25 -136 0 -143 1 -143 20 0 13 -7 20
-20 20 -15 0 -20 7 -20 25 0 25 -1 25 -83 25 -80 0 -84 1 -95 25 -10 22 -18
25 -62 25 -47 0 -50 2 -50 25 0 24 -2 25 -70 25 -63 0 -70 2 -70 20 0 19 -7
20 -120 20 l-120 0 0 25 c0 20 -5 25 -25 25 -20 0 -25 5 -25 25 0 20 -5 25
-25 25 -20 0 -25 5 -25 25 0 24 -2 25 -70 25 -63 0 -70 2 -70 20 0 17 -7 20
-45 20 -41 0 -45 2 -45 25 0 23 -3 25 -50 25 -47 0 -50 2 -50 25 0 24 -2 25
-70 25 -68 0 -70 1 -70 25 0 25 0 25 -95 25 -88 0 -95 1 -95 20 0 17 -7 20
-50 20 -47 0 -50 2 -50 25 0 24 -2 25 -70 25 -69 0 -70 0 -70 27 0 17 -10 36
-27 50 -22 19 -38 23 -95 23 -66 0 -68 1 -68 25 0 20 -5 25 -25 25 -18 0 -25
5 -25 20 0 18 -7 20 -68 20 -60 0 -71 3 -92 25 -19 21 -33 25 -77 25 -50 0
-53 1 -53 25 0 24 -2 25 -70 25 -68 0 -70 1 -70 25 0 25 0 25 -95 25 -88 0
-95 1 -95 20 0 17 -7 20 -45 20 -41 0 -45 2 -45 25 0 20 -5 25 -26 25 -16 0
-34 10 -46 25 -16 21 -28 25 -72 25 -43 0 -57 4 -76 25 -13 14 -34 25 -47 25
-16 0 -23 6 -23 20 0 18 -7 20 -70 20 -68 0 -70 1 -70 25 0 24 -2 25 -75 25
-58 0 -77 4 -81 15 -4 8 -15 15 -25 15 -10 0 -19 -7 -19 -15 0 -8 -9 -15 -20
-15 -16 0 -20 7 -20 30 0 28 -13 40 -24 22 -3 -4 -21 -6 -40 -4 -28 3 -36 9
-36 24 0 10 -4 17 -9 13 -5 -3 -13 24 -16 60 -4 36 -12 65 -17 65 -5 0 -7 -4
-4 -9 3 -5 -10 -11 -29 -13 -19 -2 -37 1 -39 7 -2 5 -5 3 -5 -6 -1 -9 -8 -22
-16 -29 -8 -7 -15 -23 -15 -35 0 -18 -7 -24 -32 -28 -18 -2 -34 -1 -36 4 -2 4
-10 5 -17 3 -26 -10 -65 41 -65 84 0 44 -19 66 -63 78 -38 9 -68 84 -32 76 18
-3 47 41 40 59 -3 8 -24 26 -45 41 -38 26 -40 31 -40 78 0 28 7 61 15 73 8 13
14 36 14 52 -1 17 4 48 10 70 6 22 11 67 11 101 0 35 9 86 20 120 12 32 23 93
27 134 3 41 11 81 17 89 6 8 16 55 22 105 7 50 21 118 33 150 11 33 21 82 21
110 0 38 5 56 19 68 13 11 21 36 26 87 4 41 13 78 22 86 8 8 17 32 20 52 3 21
16 71 29 112 13 40 24 85 24 98 0 14 9 40 19 57 10 17 22 51 26 76 4 25 14 57
21 72 8 15 19 49 25 77 6 27 19 66 30 87 10 21 19 45 19 54 0 8 7 28 15 44 8
16 22 54 31 85 9 31 20 61 24 66 4 6 15 34 24 64 9 29 21 60 27 67 6 8 15 34
20 59 5 24 17 53 28 64 10 10 22 37 26 60 4 22 11 43 15 46 5 3 14 22 20 43
12 37 23 62 79 184 17 37 31 73 31 81 0 8 7 20 15 27 9 7 20 33 27 57 6 25 17
47 24 50 7 2 16 18 19 33 4 16 14 39 24 52 10 13 23 40 30 60 7 20 18 42 26
48 7 6 17 25 20 41 4 16 11 31 16 35 6 3 21 29 34 57 14 29 29 59 34 67 5 8
24 44 41 80 18 36 46 88 61 115 36 63 59 111 59 125 0 5 4 10 9 10 5 0 14 15
22 33 7 17 21 43 31 57 37 49 68 101 68 114 0 7 11 23 24 36 14 12 28 35 31
50 3 16 13 31 20 34 8 3 21 20 30 38 14 30 34 64 75 129 9 13 20 31 25 40 6 9
29 45 52 80 24 34 43 68 43 75 0 6 7 14 15 18 8 3 20 16 25 28 6 13 24 41 40
63 17 22 51 70 76 107 26 37 53 73 60 79 8 6 14 17 14 24 0 7 10 24 23 38 12
14 40 50 61 81 22 31 43 56 48 56 4 0 8 6 8 14 0 7 10 24 23 38 48 54 87 103
87 109 0 4 20 29 45 55 25 27 45 52 45 57 0 4 8 15 18 25 9 10 35 40 57 67 22
26 46 54 53 61 6 7 12 16 12 20 0 5 9 17 20 29 29 30 111 120 140 153 14 16
48 55 75 87 61 71 94 108 144 160 21 22 43 50 50 63 6 12 16 22 21 22 12 0
170 157 170 169 0 4 11 13 25 19 14 6 25 18 25 27 0 8 6 15 13 15 8 0 20 11
27 25 7 14 17 25 22 25 12 0 78 67 78 79 0 5 8 12 18 15 21 7 82 64 82 77 0 5
9 13 19 17 10 4 63 48 118 98 54 51 111 102 127 115 15 13 42 36 59 52 16 15
33 27 38 27 4 0 11 9 14 20 3 11 11 20 16 20 6 0 50 34 99 75 49 41 92 75 97
75 4 0 21 14 37 31 32 33 164 136 203 157 13 8 27 20 30 28 3 8 11 14 19 14 7
0 21 11 30 25 9 14 22 25 30 25 7 0 26 11 41 24 16 14 41 36 57 50 15 14 37
28 47 31 11 4 19 10 19 15 0 5 20 18 45 29 25 11 45 24 45 30 0 5 9 12 19 16
18 5 79 48 111 79 8 7 25 16 36 20 12 4 29 15 39 26 10 11 23 20 30 20 7 0 20
9 30 20 10 11 27 22 39 26 11 4 34 17 49 30 16 13 34 24 41 24 7 0 21 9 31 20
10 11 24 20 31 20 7 0 26 11 42 25 17 14 34 25 40 25 5 0 16 7 23 16 8 9 32
25 54 36 42 20 62 31 108 62 31 21 71 44 132 76 22 11 63 33 90 49 28 16 68
38 90 50 22 11 87 45 145 76 57 30 109 55 114 55 5 0 24 11 41 24 18 14 44 28
58 31 14 4 31 13 38 21 6 8 36 21 65 30 30 8 56 19 59 24 3 5 22 14 43 21 20
6 48 20 61 30 13 11 31 19 41 19 10 0 28 8 41 19 13 10 42 24 64 31 22 7 47
18 55 25 8 7 29 15 45 19 17 4 48 16 70 26 22 10 65 29 95 43 30 14 69 29 85
33 17 4 39 13 50 19 11 7 38 18 60 25 22 7 47 18 55 25 8 7 33 16 55 20 21 3
55 15 75 25 19 9 51 21 70 25 19 4 44 13 55 20 11 7 43 18 70 25 28 6 57 17
65 25 8 7 35 15 60 19 25 4 59 15 76 25 17 10 50 22 74 26 24 4 59 14 79 23
20 8 63 21 96 28 33 7 80 20 105 28 106 36 149 49 218 62 40 7 87 20 105 28
18 8 55 18 82 21 28 4 75 15 105 25 30 10 91 23 135 30 44 7 91 18 105 25 14
7 57 15 95 19 39 3 103 15 144 26 41 11 91 20 112 20 20 0 65 9 100 19 35 11
125 24 199 30 74 6 153 17 175 25 22 8 119 19 215 25 97 6 193 18 215 26 27
10 90 15 200 16 88 1 212 5 275 8 143 9 952 4 1235 -7z m4742 -1496 c4 -7 28
-24 52 -37 24 -13 53 -30 65 -36 11 -7 28 -13 37 -13 9 0 19 -8 22 -18 2 -11
17 -21 35 -25 22 -4 31 -13 34 -29 3 -20 8 -23 41 -20 32 3 39 0 44 -17 4 -15
16 -23 44 -27 29 -5 39 -11 39 -25 0 -12 7 -19 19 -19 10 0 49 -20 85 -45 37
-25 71 -45 75 -45 4 0 18 -11 30 -24 13 -13 34 -27 47 -30 13 -4 34 -16 47
-29 14 -12 41 -33 61 -47 20 -14 64 -46 98 -72 33 -27 67 -48 74 -48 8 0 24
-11 36 -25 12 -14 26 -25 31 -25 6 0 17 -7 26 -15 38 -35 150 -125 157 -125 4
0 17 -10 30 -22 39 -38 61 -56 85 -69 13 -6 32 -20 43 -30 11 -11 23 -19 26
-19 6 0 52 -41 135 -121 12 -10 26 -19 33 -19 7 0 12 -4 12 -9 0 -5 24 -28 53
-51 56 -45 129 -109 207 -180 27 -25 81 -74 121 -110 40 -36 100 -93 133 -128
34 -35 110 -111 170 -170 60 -59 116 -114 125 -123 9 -9 45 -49 81 -89 36 -41
83 -92 105 -115 22 -23 76 -83 120 -135 44 -52 90 -104 102 -117 35 -37 156
-184 201 -245 24 -32 47 -58 52 -58 6 0 10 -5 10 -11 0 -6 12 -26 28 -43 15
-18 36 -45 47 -60 44 -61 75 -102 91 -121 10 -10 32 -40 49 -65 43 -62 89
-126 130 -180 18 -25 34 -50 34 -55 1 -6 17 -33 36 -60 42 -59 50 -72 73 -106
9 -15 35 -53 56 -85 79 -119 86 -130 86 -140 0 -6 9 -19 20 -29 11 -10 20 -22
20 -27 0 -5 21 -41 46 -81 79 -122 94 -146 94 -152 0 -7 94 -168 120 -205 9
-14 21 -37 25 -50 4 -14 13 -32 21 -40 7 -9 42 -72 77 -140 35 -69 72 -141 82
-160 10 -19 23 -44 29 -55 5 -11 25 -48 43 -83 18 -35 33 -69 33 -76 0 -7 11
-30 25 -50 14 -20 25 -45 25 -55 0 -10 8 -29 19 -42 10 -13 22 -35 26 -49 4
-14 27 -67 51 -118 24 -52 44 -99 44 -106 0 -7 11 -34 25 -60 14 -26 25 -53
25 -59 0 -7 8 -28 19 -47 10 -19 24 -53 31 -75 7 -22 17 -49 23 -60 13 -24 58
-143 115 -305 11 -30 27 -68 36 -85 9 -16 16 -38 16 -47 0 -10 11 -46 24 -80
38 -101 48 -129 66 -198 10 -36 25 -82 34 -102 9 -21 16 -48 16 -61 0 -13 11
-51 25 -85 14 -34 25 -72 25 -85 0 -13 11 -57 25 -97 14 -40 25 -84 25 -97 0
-12 9 -49 19 -80 11 -32 25 -89 31 -128 7 -38 17 -76 23 -83 5 -7 16 -54 23
-105 8 -50 21 -109 29 -130 8 -20 15 -56 15 -78 0 -22 9 -77 21 -122 11 -45
24 -113 29 -152 4 -38 14 -97 23 -130 9 -33 20 -120 26 -193 6 -73 15 -141 20
-151 6 -10 15 -90 21 -177 6 -87 18 -211 26 -274 45 -352 45 -1556 0 -1845 -8
-49 -17 -144 -21 -210 -3 -66 -15 -167 -25 -225 -10 -58 -22 -145 -25 -195 -4
-49 -11 -99 -16 -111 -4 -13 -15 -71 -23 -131 -9 -59 -25 -153 -35 -208 -11
-55 -25 -125 -30 -155 -26 -137 -52 -253 -58 -263 -3 -5 -16 -58 -29 -116 -28
-133 -51 -221 -74 -291 -10 -30 -21 -75 -25 -99 -3 -24 -12 -55 -19 -70 -8
-14 -19 -53 -26 -86 -7 -33 -16 -65 -20 -70 -5 -6 -15 -39 -24 -75 -8 -36 -22
-78 -30 -95 -9 -16 -16 -38 -16 -48 0 -10 -11 -44 -25 -77 -14 -33 -25 -68
-25 -78 0 -10 -9 -35 -20 -57 -11 -21 -23 -55 -26 -74 -3 -20 -13 -47 -21 -60
-9 -14 -21 -45 -28 -70 -13 -45 -40 -114 -76 -196 -10 -22 -32 -78 -49 -124
-17 -46 -40 -100 -51 -120 -10 -20 -19 -42 -19 -49 0 -8 -7 -26 -15 -40 -8
-15 -26 -54 -40 -87 -65 -147 -326 -675 -375 -760 -17 -27 -34 -61 -40 -75 -5
-14 -14 -32 -20 -40 -11 -17 -97 -165 -120 -208 -9 -16 -26 -41 -38 -57 -12
-15 -22 -32 -22 -38 0 -5 -20 -40 -45 -77 -25 -37 -45 -71 -45 -74 0 -4 -8
-19 -19 -34 -31 -46 -55 -83 -76 -117 -43 -71 -160 -240 -167 -243 -5 -2 -15
-18 -23 -35 -8 -18 -39 -66 -70 -107 -30 -41 -72 -100 -93 -130 -20 -30 -46
-65 -57 -77 -11 -11 -31 -37 -45 -57 -21 -31 -144 -188 -236 -301 -14 -16 -35
-43 -47 -58 -12 -15 -35 -42 -50 -60 -16 -18 -72 -84 -125 -147 -53 -63 -117
-136 -142 -161 -25 -26 -83 -89 -130 -140 -93 -102 -452 -462 -573 -574 -102
-95 -278 -249 -411 -360 -26 -22 -62 -52 -80 -67 -28 -25 -123 -100 -184 -146
-13 -9 -31 -24 -40 -32 -10 -8 -45 -35 -77 -60 -33 -25 -63 -49 -66 -53 -4 -5
-16 -14 -27 -20 -25 -14 -201 -141 -221 -159 -8 -7 -29 -22 -47 -33 -30 -19
-153 -102 -234 -158 -19 -13 -53 -35 -75 -49 -22 -14 -53 -33 -69 -44 -32 -22
-88 -56 -130 -80 -52 -29 -54 -23 -60 346 -4 184 -11 376 -16 425 -5 50 -14
209 -20 355 -6 146 -20 333 -30 415 -10 83 -21 206 -25 275 -3 69 -13 159 -21
200 -8 41 -20 147 -28 235 -8 88 -19 175 -25 194 -6 19 -13 68 -17 110 -3 42
-14 121 -24 176 -10 55 -21 134 -25 175 -4 41 -15 111 -25 155 -10 44 -21 112
-24 150 -4 39 -13 93 -21 120 -7 28 -18 84 -24 125 -7 41 -20 116 -31 165 -10
50 -31 151 -45 225 -14 74 -33 158 -41 185 -8 28 -21 88 -29 135 -8 47 -21
103 -29 125 -8 22 -15 56 -16 75 0 19 -12 67 -25 105 -14 39 -25 80 -25 92 0
13 -9 49 -19 80 -11 32 -25 87 -31 123 -7 35 -16 72 -21 82 -5 9 -16 51 -23
92 -8 41 -21 87 -29 103 -8 15 -17 48 -20 73 -3 25 -15 65 -25 90 -11 25 -23
65 -27 90 -4 25 -13 56 -20 70 -7 14 -18 50 -25 80 -7 30 -16 60 -21 66 -5 6
-15 39 -23 75 -14 59 -41 148 -68 224 -6 17 -17 55 -24 85 -8 30 -20 64 -26
75 -6 11 -17 40 -24 65 -7 25 -27 83 -44 130 -18 47 -40 112 -50 146 -10 33
-25 75 -34 92 -9 17 -16 39 -16 49 0 10 -11 41 -25 68 -13 28 -25 58 -25 68 0
10 -9 35 -19 55 -10 20 -24 57 -31 81 -6 24 -20 60 -31 80 -10 20 -19 43 -19
51 0 8 -9 29 -20 45 -11 17 -20 39 -20 50 0 12 -8 36 -18 56 -10 19 -30 75
-46 124 -16 50 -39 115 -52 146 -13 31 -24 62 -24 69 0 7 -9 27 -19 44 -10 17
-22 45 -26 63 -3 17 -12 37 -20 43 -8 6 -17 26 -20 43 -4 18 -15 48 -25 67
-34 66 -80 169 -80 179 0 5 -20 49 -44 98 -68 137 -96 198 -96 206 0 8 -24 63
-70 162 -10 22 -23 51 -29 65 -11 24 -27 53 -58 110 -8 14 -21 41 -29 60 -8
19 -19 42 -25 50 -5 8 -12 23 -16 34 -3 10 -23 50 -45 90 -21 39 -45 87 -54
106 -8 19 -19 42 -24 50 -6 8 -19 33 -30 55 -11 22 -24 47 -30 55 -5 8 -17 31
-25 50 -9 19 -38 76 -65 125 -27 50 -58 108 -70 130 -12 22 -34 63 -50 90 -16
28 -37 67 -46 88 -9 20 -20 37 -24 37 -4 0 -13 15 -20 33 -7 17 -28 55 -46 83
-31 47 -68 112 -102 179 -8 17 -19 32 -23 35 -5 3 -15 22 -23 42 -9 20 -20 39
-25 43 -6 3 -28 39 -51 80 -23 41 -45 75 -50 75 -4 0 -10 10 -14 23 -3 12 -14
32 -26 44 -11 13 -25 33 -30 45 -10 23 -26 47 -104 165 -78 116 -86 129 -86
137 0 4 -10 22 -23 39 -12 18 -27 39 -32 48 -13 21 -92 137 -145 211 -22 32
-40 61 -40 66 0 5 -9 17 -20 27 -11 10 -20 21 -20 26 0 11 -70 114 -81 117 -5
2 -9 9 -9 16 0 7 -9 21 -19 30 -10 9 -36 45 -56 79 -21 34 -43 67 -50 72 -6 6
-32 39 -56 73 -24 35 -53 76 -64 91 -11 16 -29 41 -40 57 -10 16 -29 43 -42
59 -43 56 -53 70 -108 145 -29 41 -61 84 -69 95 -9 11 -41 54 -73 95 -31 41
-67 89 -80 105 -13 17 -30 39 -39 50 -30 42 -84 111 -98 125 -15 17 -154 188
-189 234 -12 16 -33 41 -47 57 -14 15 -34 40 -45 55 -11 15 -44 54 -73 88 -29
33 -62 73 -75 89 -12 15 -34 41 -49 57 -16 17 -28 35 -28 40 0 6 -6 10 -14 10
-8 0 -18 9 -21 20 -3 11 -15 25 -26 30 -10 6 -19 16 -19 22 0 13 -89 116 -177
206 -34 34 -65 71 -68 82 -3 10 -15 22 -26 25 -10 4 -19 11 -19 16 0 14 -115
129 -129 129 -6 0 -11 9 -11 21 0 12 -8 23 -19 26 -10 2 -24 16 -30 29 -6 13
-17 24 -26 24 -8 0 -15 5 -15 11 0 6 -25 36 -55 66 -30 30 -57 62 -60 71 -3
10 -21 28 -40 42 -18 14 -40 36 -47 50 -7 14 -21 31 -30 38 -10 7 -18 20 -18
28 0 8 -4 14 -8 14 -12 0 -82 66 -82 78 0 5 -7 15 -15 22 -28 23 1 41 54 34
36 -5 50 -2 60 9 11 14 5 18 -43 32 -58 17 -116 62 -116 90 0 9 -6 15 -12 12
-7 -2 -26 3 -43 12 l-30 16 35 3 c22 2 38 -2 45 -12 19 -25 59 -35 122 -29 59
5 60 5 72 -26 24 -56 51 -31 51 47 0 24 4 32 18 32 10 0 38 18 62 40 24 22 39
40 34 40 -5 0 -18 3 -30 6 -13 3 -28 -1 -37 -11 -20 -19 -37 -12 -37 15 0 10
-6 21 -12 23 -8 4 -7 6 3 6 9 1 19 8 23 16 3 8 12 15 21 15 8 0 15 5 15 10 0
6 9 10 21 10 11 0 17 5 14 10 -3 6 -1 10 6 10 7 0 10 3 6 6 -10 10 14 64 29
64 8 0 14 -5 14 -10 0 -6 8 -5 20 2 16 10 24 10 41 -1 20 -12 21 -11 16 8 -4
15 0 21 11 21 13 0 17 10 17 42 0 41 1 43 35 48 19 3 30 8 24 12 -6 4 -9 21
-6 38 3 24 9 30 28 30 13 0 24 5 24 11 0 7 15 9 39 6 22 -2 45 0 53 5 10 7 8
8 -5 4 -11 -3 -16 -2 -12 4 3 6 16 11 28 11 17 1 18 2 5 6 -20 5 -23 25 -8 54
8 14 7 19 -2 19 -8 0 -9 3 -3 8 6 4 11 20 13 36 4 39 30 101 39 92 10 -10 33
-78 33 -98 0 -15 9 -18 50 -18 47 0 50 2 50 25 0 23 3 25 50 25 47 0 50 2 50
25 0 20 5 25 25 25 18 0 25 5 25 20 0 15 7 20 25 20 20 0 25 5 25 25 0 18 5
25 20 25 15 0 20 7 20 25 0 18 5 25 19 25 11 0 21 4 23 10 2 5 22 11 46 12
l42 1 0 49 c0 40 3 48 18 48 10 0 27 6 37 14 17 12 21 12 32 -3 11 -14 12 -11
13 22 0 34 2 37 30 37 23 0 30 4 30 20 0 13 5 18 15 14 12 -5 15 2 15 30 0 33
2 36 30 36 35 0 41 23 10 40 -25 14 -27 50 -2 50 10 0 29 -11 42 -25 14 -15
35 -25 52 -25 23 0 28 4 28 25 0 20 5 25 23 25 22 0 62 15 109 41 10 5 27 9
38 9 15 0 20 7 20 25 0 20 5 25 25 25 18 0 25 5 25 19 0 14 8 21 27 23 22 2
31 11 44 48 16 45 17 45 68 48 47 3 51 5 51 28 0 19 5 24 25 24 18 0 25 5 25
20 0 13 7 20 20 20 17 0 20 7 20 40 0 28 -4 40 -14 40 -8 0 -13 7 -12 15 3 18
16 32 16 17 0 -7 15 -12 34 -12 19 0 36 -6 39 -13 3 -7 20 -14 39 -15 27 -2
37 3 46 20 22 42 31 85 19 97 -15 15 20 51 50 51 13 0 36 11 51 25 15 14 37
25 49 25 18 0 23 6 23 25 0 20 5 25 25 25 20 0 25 5 25 25 0 18 5 25 20 25 13
0 20 7 20 20 0 15 7 20 25 20 20 0 25 5 25 25 0 20 5 25 25 25 20 0 25 5 25
25 0 20 5 25 25 25 20 0 25 5 25 25 0 23 4 25 45 25 38 0 45 3 45 20 0 15 7
20 25 20 21 0 25 5 25 28 0 17 10 38 25 52 14 13 25 34 25 47 0 16 6 23 20 23
13 0 20 7 20 18 0 10 6 30 13 45 10 22 19 27 48 27 38 0 59 14 59 40 0 12 9
15 40 12 37 -4 40 -2 40 22 0 24 3 26 48 26 39 0 53 5 72 25 13 14 34 25 47
25 16 0 23 6 23 20 0 17 7 20 45 20 51 0 68 19 64 73 -5 70 -2 74 59 93 50 17
57 23 60 47 3 24 13 33 58 53 30 13 63 24 74 24 15 0 20 7 20 25 0 18 5 25 20
25 13 0 20 7 20 20 0 15 7 20 29 20 23 0 31 6 41 33 6 17 16 40 21 49 5 10 9
29 9 43 0 23 3 25 50 25 59 0 119 25 101 43 -25 25 -12 48 38 69 36 16 54 31
68 57 15 29 26 37 52 39 25 3 37 11 53 38 13 21 28 34 41 34 28 0 77 48 77 77
0 18 6 23 26 23 19 0 28 7 36 28 9 24 15 27 44 24 28 -3 33 -1 36 19 2 14 15
30 33 39 17 8 32 16 34 18 3 1 -1 8 -7 14 -7 7 -12 20 -12 30 0 16 9 18 72 18
l72 0 48 47 c30 29 48 56 48 70 0 16 6 23 20 23 14 0 20 7 20 24 0 20 10 29
50 47 43 19 50 27 50 51 0 26 2 28 44 28 36 0 44 3 42 18 -1 12 8 18 27 20 20
3 35 14 49 38 15 26 27 34 48 34 15 0 33 7 40 15 7 8 28 15 46 15 31 0 34 2
34 31 l0 31 56 -4 c46 -4 57 -2 65 14 6 10 14 16 20 13 5 -4 9 8 9 24 0 30 14
38 53 32 4 0 7 13 7 30 0 46 -51 90 -101 87 -40 -2 -79 22 -79 49 0 7 -6 13
-13 13 -19 0 -36 20 -30 36 8 22 39 17 69 -11 31 -29 33 -29 58 -10 25 19 46
19 46 1 0 -8 10 -22 23 -31 12 -8 22 -19 23 -23 5 -41 58 -58 84 -27 17 20 76
20 84 -1 12 -32 6 -43 -26 -46 -21 -2 -33 -8 -33 -18 0 -19 55 -17 70 2 5 7
22 19 38 25 15 7 27 17 27 22 0 5 16 18 35 30 19 11 35 24 35 28 0 4 -11 22
-25 38 l-24 30 -23 -28 c-16 -20 -28 -26 -41 -21 -25 9 -17 37 13 44 16 4 26
14 28 29 4 22 1 23 -30 17 -18 -3 -38 -13 -43 -20 -6 -8 -24 -16 -40 -18 -19
-2 -34 -11 -40 -25 -13 -30 -60 -31 -77 -3 -7 11 -23 20 -36 20 -21 0 -23 3
-17 33 14 65 55 75 55 13 0 -31 2 -32 33 -28 39 5 74 35 92 80 15 33 38 42 52
18z m-5802 -4808 c12 -26 35 -36 35 -15 0 20 20 26 50 15 24 -9 24 -10 6 -23
-10 -8 -23 -16 -29 -18 -6 -2 -8 -8 -4 -14 5 -7 20 -8 48 -2 43 10 59 6 59
-16 0 -7 7 -15 15 -19 24 -9 17 -34 -14 -51 -66 -33 -41 -93 42 -102 39 -5 46
-3 52 16 9 29 38 26 52 -6 11 -23 10 -28 -6 -39 -24 -17 -35 -62 -20 -80 15
-18 63 -18 79 1 7 8 19 15 26 15 19 0 18 -47 -2 -58 -11 -6 -13 -16 -9 -35 8
-31 35 -36 42 -8 7 29 30 33 48 8 19 -27 19 -46 0 -53 -8 -4 -15 -12 -15 -20
0 -19 44 -64 63 -64 20 0 37 30 37 64 0 16 6 26 15 26 10 0 15 -10 15 -30 0
-23 6 -33 25 -42 20 -9 25 -19 25 -45 0 -23 -8 -41 -25 -57 -14 -14 -25 -34
-25 -50 0 -22 4 -26 28 -26 33 0 59 -24 64 -60 3 -22 10 -26 53 -32 48 -8 56
-8 100 -6 30 1 95 -41 95 -62 0 -10 12 -32 26 -49 24 -29 25 -31 5 -31 -11 0
-24 7 -29 16 -5 9 -18 14 -33 12 -19 -2 -25 -10 -27 -35 -3 -32 -2 -33 32 -33
33 0 36 -3 46 -42 6 -24 13 -48 15 -55 6 -17 44 -20 103 -7 48 11 52 10 52 -7
0 -11 -3 -19 -7 -19 -5 0 -16 -14 -25 -31 -18 -30 -18 -30 5 -23 12 4 28 14
35 23 11 14 14 14 28 -6 9 -13 23 -23 31 -23 16 0 52 -38 53 -56 0 -7 -12 -15
-26 -18 -21 -6 -24 -9 -14 -21 7 -8 18 -15 25 -15 7 0 15 -18 19 -40 6 -41 27
-60 65 -60 13 0 23 -8 27 -24 3 -13 16 -28 30 -35 13 -6 24 -17 24 -26 0 -8 5
-15 12 -15 6 0 20 -8 30 -17 16 -14 21 -15 28 -4 11 19 40 6 40 -17 0 -10 11
-33 25 -52 14 -19 25 -42 25 -52 0 -12 7 -18 21 -18 12 0 23 -8 26 -19 3 -11
13 -21 23 -24 16 -4 18 -12 13 -61 -5 -53 -4 -56 16 -56 14 0 25 -9 31 -25 5
-14 14 -25 20 -25 5 0 10 -23 10 -50 0 -45 3 -52 28 -63 15 -6 29 -14 32 -17
3 -3 22 -14 44 -25 21 -11 43 -30 49 -42 6 -13 18 -23 28 -23 13 0 18 -10 21
-41 2 -22 1 -42 -3 -45 -14 -8 -15 -54 -4 -110 l12 -59 44 -5 c58 -7 69 -15
69 -51 0 -22 5 -29 20 -29 11 0 20 7 20 15 0 9 7 30 16 46 14 29 17 30 33 15
10 -9 23 -16 29 -16 6 0 14 -10 18 -22 3 -13 15 -35 25 -50 11 -14 19 -33 19
-42 0 -9 11 -21 25 -26 27 -10 35 -40 10 -40 -24 0 -42 -41 -48 -107 -4 -55
-3 -62 15 -66 11 -3 33 -1 50 5 21 8 40 7 66 -1 21 -7 45 -13 55 -15 9 -1 23
-8 29 -14 7 -7 17 -12 24 -12 6 0 14 -19 18 -42 4 -23 12 -46 19 -50 7 -4 12
-20 12 -35 0 -24 4 -28 33 -31 26 -3 32 -8 32 -27 0 -12 -7 -25 -15 -29 -24
-9 -18 -42 10 -54 29 -13 31 -24 10 -46 -21 -21 -19 -26 14 -26 16 0 34 -7 41
-15 7 -8 21 -15 30 -15 33 0 50 -12 50 -35 0 -17 7 -25 23 -27 14 -2 23 -11
25 -26 3 -20 0 -22 -22 -16 -26 6 -32 1 -38 -41 -3 -21 17 -25 60 -11 20 7 22
4 22 -24 0 -23 -5 -33 -19 -37 -37 -10 -33 -63 5 -63 7 0 18 -9 24 -20 12 -23
40 -27 40 -5 0 8 -10 23 -22 35 -24 22 -24 21 15 38 25 11 27 10 27 -11 0 -13
11 -38 25 -57 14 -19 25 -40 25 -47 0 -7 11 -19 25 -25 14 -6 25 -19 25 -29 0
-10 9 -24 20 -32 11 -8 22 -31 26 -55 3 -22 13 -43 20 -46 8 -3 14 -15 14 -27
0 -13 6 -30 13 -38 8 -9 19 -36 26 -60 8 -26 26 -56 44 -73 90 -81 118 -114
128 -151 21 -83 37 -112 63 -115 31 -4 36 -37 9 -58 -16 -12 -15 -14 15 -20
21 -4 32 -12 32 -24 0 -18 24 -43 51 -53 19 -6 30 -59 17 -81 -7 -12 -2 -17
17 -22 15 -4 25 -13 25 -23 0 -10 11 -23 24 -30 25 -14 34 -47 39 -134 2 -40
25 -67 58 -67 12 0 21 -12 28 -35 5 -19 19 -47 30 -61 12 -15 21 -35 21 -45 0
-12 7 -19 20 -19 15 0 20 -7 20 -26 0 -17 -6 -28 -20 -31 -29 -8 -27 -45 3
-41 25 4 67 -47 67 -82 0 -13 8 -24 19 -27 11 -3 22 -12 26 -21 7 -20 -26
-102 -42 -102 -16 0 -17 -36 -3 -45 6 -4 15 8 21 25 16 45 43 36 47 -15 2 -22
10 -48 19 -57 13 -15 14 -22 3 -48 -16 -39 -44 -36 -48 5 -2 17 -11 38 -20 48
-16 18 -17 18 -23 0 -13 -32 -10 -73 6 -79 9 -4 15 -19 15 -40 0 -24 -5 -34
-15 -34 -8 0 -15 -4 -15 -10 0 -13 1 -13 43 5 20 8 42 12 50 9 16 -6 42 21 42
45 0 29 39 18 55 -16 8 -17 25 -34 38 -38 16 -4 22 -13 22 -33 0 -15 9 -51 20
-80 11 -29 20 -61 20 -71 0 -13 8 -21 23 -23 17 -2 23 -11 25 -37 2 -19 12
-46 23 -59 10 -14 19 -40 19 -59 0 -29 4 -34 30 -39 28 -6 30 -9 30 -55 0 -41
-3 -48 -22 -51 -31 -4 -34 -26 -5 -37 14 -6 38 -33 56 -64 17 -30 38 -58 46
-61 8 -3 15 -14 15 -25 0 -11 4 -22 9 -25 5 -3 12 -18 16 -33 9 -36 33 -63 57
-63 13 0 18 -8 18 -30 0 -22 -5 -30 -18 -30 -28 0 -42 -21 -42 -62 0 -32 4
-39 26 -44 16 -4 29 -2 33 5 13 21 39 1 45 -35 4 -18 16 -38 26 -44 15 -8 20
-21 20 -50 0 -35 -3 -40 -22 -40 -13 0 -71 -2 -130 -6 l-107 -7 -3 33 c-4 40
-30 60 -55 44 -39 -24 -23 -84 23 -84 32 0 30 -16 -7 -51 -35 -32 -57 -37 -66
-14 -5 14 -8 14 -22 2 -24 -22 -153 -32 -180 -15 -17 10 -25 10 -41 1 -10 -7
-44 -16 -75 -19 -44 -5 -55 -10 -55 -25 0 -24 -14 -31 -43 -20 -20 8 -28 5
-46 -15 -12 -14 -32 -24 -47 -24 -15 0 -57 -9 -93 -19 -93 -27 -138 -33 -146
-21 -9 14 -75 13 -75 -2 0 -6 7 -19 16 -29 17 -18 13 -19 -229 -34 -42 -3 -86
-10 -96 -17 -13 -8 -26 -8 -49 0 -36 12 -58 -4 -48 -36 6 -17 0 -20 -54 -25
-33 -4 -117 -10 -187 -13 -106 -6 -131 -10 -146 -25 -10 -11 -28 -19 -41 -19
-13 0 -35 -9 -49 -20 -32 -25 -47 -25 -47 -1 0 27 -17 36 -25 12 -6 -21 -43
-31 -121 -31 -87 0 -257 -21 -284 -35 -14 -7 -40 -19 -57 -25 -18 -7 -33 -16
-33 -21 0 -13 -97 -11 -105 1 -5 8 -11 7 -21 -1 -10 -8 -49 -10 -139 -5 -90 5
-134 4 -159 -5 -27 -10 -41 -10 -60 -1 -14 6 -28 7 -31 2 -7 -12 -63 -19 -195
-25 -133 -6 -147 -9 -155 -35 -5 -16 -19 -19 -98 -24 -207 -13 -586 -23 -623
-17 -33 5 -40 10 -44 36 -5 30 -6 30 -84 35 -43 3 -83 2 -90 -2 -16 -11 -84
-10 -106 2 -23 12 -73 -14 -92 -48 -14 -28 -39 -25 -53 6 -13 29 -29 28 -54
-5 l-21 -26 22 -25 23 -24 -65 5 c-36 3 -98 0 -139 -6 -62 -8 -79 -7 -105 6
-27 14 -96 17 -491 21 -253 3 -479 8 -502 12 -36 5 -42 10 -45 32 -3 26 -6 27
-53 25 -81 -4 -87 -4 -165 7 -41 6 -113 11 -160 12 l-85 2 -3 -29 c-2 -17 -7
-33 -11 -38 -4 -4 -106 -3 -228 2 -171 6 -228 12 -253 25 -18 9 -41 16 -51 16
-10 0 -28 14 -41 30 -21 29 -68 43 -68 20 0 -5 -19 -10 -42 -10 -23 0 -56 -5
-74 -12 -25 -9 -60 -8 -165 6 -74 9 -158 16 -186 16 -50 0 -53 1 -53 25 0 29
-17 33 -36 8 -10 -15 -15 -16 -25 -5 -7 6 -22 12 -34 12 -11 0 -31 12 -44 26
-22 23 -23 30 -19 115 4 70 10 95 25 112 23 25 46 98 38 119 -3 8 4 37 16 64
17 36 22 65 20 111 -2 51 1 65 18 82 23 23 46 101 39 129 -3 11 2 23 13 30 12
8 20 30 24 67 7 52 9 56 30 51 13 -3 27 0 34 7 6 8 16 83 22 168 12 164 10
161 74 205 15 11 17 16 7 26 -17 17 -15 73 3 88 7 6 17 31 21 55 3 25 12 49
19 55 8 6 17 26 21 43 7 36 34 87 46 87 4 0 8 -19 9 -42 1 -24 4 -54 8 -68 6
-21 9 -18 29 34 12 32 22 59 22 61 0 2 -14 8 -31 14 l-32 11 6 72 c3 39 10 74
14 77 19 14 43 72 43 103 0 18 7 41 15 52 8 10 17 38 21 63 4 26 13 47 24 53
10 5 20 27 24 50 3 22 15 49 26 60 12 12 20 34 20 53 0 45 13 61 40 52 22 -7
22 -6 18 55 -4 51 -1 63 13 71 10 5 25 6 33 3 9 -3 16 -1 16 5 0 18 47 61 66
61 15 0 16 -9 11 -75 -7 -77 0 -96 25 -67 11 12 17 50 21 123 6 118 -4 149
-49 149 -28 0 -28 1 -12 72 15 68 24 79 46 51 14 -18 24 -21 63 -16 45 5 47 6
55 47 12 66 11 206 -2 206 -7 0 -14 -7 -18 -15 -3 -8 -12 -15 -21 -15 -23 0
-18 38 10 72 14 16 25 36 25 44 0 29 40 79 67 84 27 5 28 7 26 64 -2 50 2 62
23 83 18 18 24 35 24 70 0 34 6 53 25 75 17 20 25 42 25 68 0 28 5 42 19 49
10 6 22 22 25 36 4 14 11 25 16 25 6 0 10 7 10 15 0 8 5 15 10 15 6 0 10 8 10
18 0 9 11 37 25 61 14 23 25 56 25 72 0 18 7 32 20 39 12 6 25 22 30 36 15 39
40 31 40 -13 0 -65 8 -79 52 -92 25 -8 42 -20 45 -32 7 -26 14 -24 46 13 28
31 28 31 25 162 l-3 131 -39 3 -38 3 7 45 c7 49 29 109 44 118 4 3 11 23 15
45 3 22 13 46 21 54 7 8 17 26 21 41 6 27 18 33 29 16 16 -26 30 -7 30 42 0
40 4 53 15 53 11 0 15 -14 15 -60 l0 -60 86 -3 c47 -1 98 2 112 7 l27 10 -43
43 c-23 24 -50 56 -60 71 -9 15 -26 27 -37 27 -10 0 -22 5 -25 10 -3 6 -17 10
-31 10 -19 0 -24 5 -24 25 0 16 6 25 15 25 8 0 15 7 15 16 0 8 14 29 30 46 17
16 30 38 30 49 0 11 16 29 41 45 39 24 42 25 60 8 16 -14 24 -15 44 -6 22 10
25 17 25 70 0 63 -11 82 -48 82 -38 0 -24 34 16 38 36 4 35 2 22 38 -9 22 -7
31 9 48 10 12 22 36 26 54 6 27 11 32 36 32 18 0 32 6 36 16 4 11 13 14 29 10
41 -11 74 3 74 30 0 19 -8 25 -40 34 -43 12 -43 12 -34 58 4 22 16 35 45 48
32 16 38 25 41 54 3 29 7 35 29 38 21 2 30 12 45 50 9 25 32 62 51 81 42 44
63 85 63 127 0 18 6 37 13 41 7 4 21 31 32 58 10 28 26 55 35 62 10 7 20 26
23 43 6 26 11 30 37 30 20 0 33 6 37 18 4 9 15 24 25 32 15 12 17 21 9 48 -11
38 -5 62 15 62 8 0 17 8 21 18 3 9 18 28 33 42 14 14 25 32 23 42 -2 9 5 22
15 30 11 7 21 22 23 32 2 11 25 31 53 45 43 23 52 33 67 76 10 28 18 60 18 73
1 29 30 41 46 18 9 -12 15 -14 20 -6 4 7 2 17 -4 23 -18 18 -12 52 13 76 14
13 26 38 28 55 2 24 7 31 23 29 21 -2 27 5 62 79 10 21 21 38 25 38 18 0 74
47 70 58 -10 32 8 61 43 68 31 6 34 8 28 35 -3 19 -1 29 6 29 6 0 17 11 23 25
7 16 19 25 34 25 19 0 24 7 30 36 11 62 59 121 99 123 6 1 15 -9 20 -21z
m-10414 -4823 c28 -19 56 -35 61 -35 6 0 48 -22 95 -50 47 -27 88 -50 93 -50
4 0 13 -7 20 -15 7 -8 22 -15 34 -15 12 0 37 -11 56 -24 19 -13 45 -26 58 -30
12 -4 22 -11 22 -15 0 -5 55 -37 123 -71 67 -34 138 -71 157 -81 61 -33 291
-139 303 -140 7 0 30 -11 52 -24 111 -66 217 -118 285 -141 30 -11 61 -25 69
-33 8 -7 27 -18 43 -23 15 -6 28 -14 28 -18 0 -5 15 -11 33 -15 17 -4 50 -17
72 -30 22 -13 57 -26 78 -30 20 -4 40 -11 42 -16 7 -11 120 -64 167 -79 20 -6
41 -17 48 -24 6 -8 27 -17 46 -21 20 -3 50 -15 67 -26 18 -10 53 -22 79 -25
26 -4 53 -12 59 -20 6 -7 33 -20 60 -29 27 -9 51 -21 54 -26 4 -5 14 -9 23 -9
9 0 40 -12 67 -25 28 -14 57 -25 66 -25 9 0 28 -9 42 -20 14 -11 34 -20 45
-20 10 0 44 -13 75 -30 31 -16 67 -30 80 -30 14 0 36 -9 49 -20 14 -10 45 -22
69 -26 24 -3 55 -13 68 -22 14 -8 45 -21 70 -28 60 -17 135 -42 191 -65 25
-10 64 -23 88 -29 23 -6 57 -19 75 -30 17 -10 50 -22 72 -26 22 -3 45 -10 50
-14 6 -4 26 -11 45 -15 19 -4 58 -17 85 -30 28 -12 70 -26 94 -30 24 -4 58
-16 75 -26 17 -10 46 -19 64 -19 18 0 58 -11 90 -24 63 -26 173 -60 242 -75
25 -6 61 -16 80 -24 19 -8 57 -18 84 -22 27 -4 59 -13 70 -20 12 -8 55 -19 96
-25 41 -6 87 -18 101 -25 14 -8 53 -18 86 -24 34 -5 81 -19 106 -30 25 -12 58
-21 72 -21 14 0 38 -6 53 -14 15 -7 54 -17 87 -21 33 -4 85 -15 115 -25 30
-10 90 -23 133 -29 43 -6 90 -17 105 -25 16 -8 57 -20 92 -26 36 -6 87 -18
114 -26 27 -7 85 -17 130 -20 45 -4 104 -16 131 -26 28 -11 92 -23 145 -27 52
-4 104 -12 115 -18 12 -7 59 -17 105 -23 47 -6 103 -17 125 -25 22 -7 76 -16
120 -20 44 -4 113 -13 153 -22 41 -8 125 -18 189 -22 107 -7 116 -9 136 -34
21 -25 26 -26 167 -33 99 -4 154 -11 175 -22 21 -11 81 -18 195 -24 91 -5 199
-15 240 -24 41 -9 154 -19 251 -24 97 -4 182 -11 188 -14 27 -17 219 -27 696
-35 281 -6 645 -10 810 -10 418 -1 1139 17 1205 30 131 25 178 29 415 37 168
5 258 12 273 21 13 7 62 15 110 18 76 5 94 3 135 -16 46 -21 80 -28 155 -30
24 -1 32 -6 32 -19 0 -26 20 -42 52 -42 l28 0 0 -235 0 -235 25 0 c20 0 25 -5
25 -25 0 -20 5 -25 25 -25 l25 0 0 -293 c0 -179 4 -297 10 -303 5 -5 11 -92
12 -199 2 -112 7 -193 13 -197 6 -4 20 -8 33 -8 22 0 22 0 22 -168 0 -167 0
-169 25 -192 25 -23 25 -25 25 -192 l0 -168 52 -25 c28 -14 60 -25 70 -25 17
0 18 -20 18 -380 l0 -380 49 0 48 0 7 -132 c3 -73 9 -232 12 -353 6 -239 13
-275 50 -275 22 0 24 -4 24 -48 0 -26 4 -52 10 -58 23 -23 33 -122 37 -360 l4
-251 24 -23 25 -23 0 -239 0 -238 25 0 c24 0 25 -2 25 -70 0 -63 2 -70 20 -70
15 0 20 -7 20 -25 0 -20 5 -25 25 -25 20 0 25 -5 25 -25 0 -17 8 -29 25 -37
l25 -11 0 -182 c0 -181 0 -182 25 -205 25 -23 25 -26 25 -181 0 -150 -1 -159
-21 -169 -20 -11 -20 -12 -3 -31 9 -10 30 -19 46 -19 l28 0 0 -168 c0 -156 2
-170 20 -187 18 -17 20 -31 20 -186 0 -159 1 -170 22 -194 13 -16 32 -25 50
-25 l28 0 0 -70 c0 -68 1 -70 25 -70 l25 0 0 -290 0 -290 -25 0 c-14 0 -29 -8
-35 -20 -13 -25 -5 -40 21 -40 12 0 19 -7 19 -20 0 -11 -5 -20 -10 -20 -6 0
-23 -9 -38 -19 -43 -30 -88 -34 -110 -10 -17 17 -20 18 -32 4 -11 -13 -10 -19
4 -34 16 -18 13 -19 -83 -25 -81 -6 -103 -11 -117 -28 -17 -18 -29 -19 -134
-17 -117 3 -160 -6 -160 -35 0 -14 -172 -31 -289 -27 -51 1 -68 -2 -85 -18
-19 -17 -44 -20 -219 -26 -116 -4 -223 -13 -260 -22 -84 -20 -1439 -31 -1587
-12 -52 6 -120 13 -150 15 -30 2 -93 8 -140 13 -47 5 -120 10 -163 10 -49 1
-89 7 -108 16 -20 11 -84 19 -201 26 -133 8 -175 14 -183 26 -8 11 -44 17
-135 24 -79 5 -136 14 -159 25 -20 10 -79 21 -131 26 -52 5 -109 15 -126 23
-17 8 -61 19 -97 24 -36 5 -76 16 -88 24 -13 9 -59 19 -103 22 -54 5 -84 13
-96 25 -12 12 -42 19 -99 24 -58 5 -88 13 -100 25 -12 12 -41 20 -92 25 -50 4
-78 12 -86 22 -12 16 -39 24 -188 59 -38 9 -86 25 -106 35 -20 10 -59 22 -87
26 -29 3 -57 13 -63 20 -6 7 -27 16 -48 19 -20 3 -50 8 -67 11 -20 3 -34 11
-37 23 -3 14 -17 19 -55 23 -28 3 -58 12 -66 21 -9 9 -33 19 -54 23 -20 4 -45
13 -54 21 -9 8 -36 19 -60 24 -23 6 -50 17 -59 25 -8 8 -42 19 -75 25 -34 6
-67 19 -77 30 -10 10 -28 19 -40 19 -12 0 -44 12 -72 25 -27 14 -62 25 -76 25
-15 0 -35 11 -47 25 -12 14 -31 25 -42 25 -10 0 -24 9 -30 20 -8 16 -21 20
-58 20 -52 0 -65 6 -75 33 -5 12 -17 17 -46 17 -30 0 -43 5 -51 20 -6 10 -26
22 -44 26 -19 3 -44 17 -57 30 -12 13 -31 24 -42 24 -10 0 -30 9 -44 20 -14
11 -34 20 -44 20 -27 0 -49 11 -49 25 0 15 -22 25 -55 25 -13 0 -29 10 -38 24
-9 13 -30 26 -48 30 -18 3 -40 12 -48 20 -9 7 -32 19 -53 25 -20 7 -38 18 -41
25 -3 7 -20 16 -38 20 -18 3 -38 15 -46 26 -8 11 -23 20 -33 20 -11 0 -24 9
-30 20 -7 13 -26 22 -52 26 -24 4 -49 16 -60 30 -11 12 -31 25 -44 28 -13 4
-24 13 -24 21 0 9 -9 15 -23 15 -13 0 -34 9 -47 20 -13 11 -34 23 -47 26 -13
4 -28 14 -33 23 -5 10 -27 23 -49 29 -22 7 -42 20 -46 30 -3 9 -35 31 -70 47
-36 17 -68 37 -70 46 -3 9 -18 19 -33 22 -15 3 -49 26 -77 51 -27 25 -56 46
-65 46 -8 0 -26 12 -39 25 -13 14 -34 28 -47 31 -13 3 -24 10 -24 14 0 4 -28
24 -62 45 -35 22 -69 47 -76 57 -7 10 -22 18 -32 18 -10 0 -22 9 -25 20 -3 11
-15 20 -26 20 -10 0 -33 14 -51 30 -17 16 -37 30 -44 30 -7 0 -16 9 -19 20 -3
11 -12 20 -18 20 -6 0 -20 9 -32 20 -48 47 -80 71 -101 76 -13 3 -30 17 -39
30 -8 13 -23 24 -31 24 -12 0 -15 6 -10 23 5 21 3 23 -25 19 -24 -4 -31 0 -36
16 -3 12 -14 24 -24 27 -11 4 -24 15 -29 26 -6 10 -17 19 -25 19 -8 0 -24 13
-36 29 -12 16 -32 32 -45 35 -13 4 -24 13 -24 21 0 7 -9 16 -19 20 -11 3 -23
15 -26 26 -4 10 -13 19 -21 19 -17 0 -84 64 -84 80 0 5 -5 10 -11 10 -25 0
-159 122 -159 144 0 8 -12 17 -27 21 -17 3 -39 22 -56 45 -16 23 -37 40 -48
40 -10 0 -19 4 -19 9 0 18 -64 81 -82 81 -10 0 -18 5 -18 12 0 7 -22 33 -50
59 -27 26 -50 51 -50 56 0 5 -20 24 -45 43 -25 19 -45 39 -45 44 0 6 -20 27
-45 46 -24 19 -47 43 -50 53 -4 9 -15 22 -26 27 -10 6 -19 17 -19 25 0 8 -4
15 -8 15 -5 0 -23 19 -40 43 -17 23 -58 71 -92 107 -33 35 -60 67 -60 71 0 4
-9 9 -20 12 -11 3 -24 17 -30 31 -5 14 -14 26 -20 26 -6 0 -15 11 -20 25 -6
15 -17 25 -30 25 -13 0 -20 7 -20 19 0 11 -9 23 -20 26 -11 3 -23 17 -26 30
-3 13 -16 31 -29 39 -13 9 -27 26 -31 38 -3 12 -24 39 -45 59 -22 21 -39 44
-39 52 0 7 -11 19 -25 25 -14 6 -25 18 -25 26 0 7 -7 20 -17 27 -9 8 -22 29
-30 47 -7 17 -20 32 -28 32 -8 0 -15 7 -15 15 0 8 -9 20 -20 27 -11 7 -30 32
-42 56 -11 24 -36 58 -54 76 -19 18 -34 38 -34 44 0 6 -9 17 -19 24 -11 8 -23
26 -26 40 -4 14 -18 35 -31 47 -13 11 -24 27 -24 33 -1 7 -19 31 -41 53 -22
22 -42 50 -45 61 -3 12 -17 31 -30 43 -13 11 -24 27 -24 35 0 8 -9 21 -19 28
-11 8 -23 26 -27 42 -3 15 -15 33 -25 39 -11 7 -19 21 -19 33 0 12 -11 29 -24
38 -13 8 -27 29 -31 46 -4 16 -11 30 -16 30 -5 0 -16 18 -25 40 -9 22 -20 40
-26 40 -5 0 -16 16 -24 35 -8 19 -20 35 -28 35 -8 0 -16 16 -20 39 -4 27 -12
40 -26 44 -13 3 -20 14 -20 31 0 14 -11 37 -25 52 -14 15 -25 33 -25 40 0 8
-9 19 -20 26 -12 8 -23 29 -27 52 -4 25 -12 40 -24 43 -10 3 -20 18 -23 38 -4
18 -15 40 -25 49 -11 10 -22 33 -25 51 -4 19 -24 56 -46 84 -22 27 -42 62 -46
78 -4 15 -15 36 -25 46 -11 10 -19 29 -19 42 0 13 -11 37 -25 53 -14 17 -25
42 -25 57 0 15 -11 40 -25 57 -14 16 -25 37 -25 46 0 10 -8 22 -19 29 -10 6
-21 27 -25 46 -4 19 -15 46 -26 60 -11 14 -20 37 -20 52 0 15 -10 36 -25 49
-17 16 -25 34 -25 58 0 20 -9 46 -20 60 -10 14 -24 44 -29 67 -5 23 -16 50
-24 59 -8 9 -20 36 -26 58 -6 23 -17 44 -25 47 -7 3 -16 25 -19 48 -3 25 -14
49 -25 58 -12 10 -22 34 -26 64 -3 27 -15 60 -25 74 -11 13 -23 44 -27 69 -3
24 -12 48 -20 52 -8 4 -18 31 -24 61 -5 29 -16 65 -23 79 -8 15 -26 50 -40 78
-15 29 -27 65 -27 81 0 37 -17 95 -30 103 -6 4 -15 32 -19 63 -4 31 -16 66
-26 77 -11 12 -20 44 -24 84 -4 35 -13 71 -20 80 -8 9 -20 51 -27 93 -8 42
-19 80 -25 84 -7 4 -16 36 -21 71 -4 35 -17 75 -28 90 -15 20 -20 43 -20 86 0
45 -5 66 -20 85 -15 19 -24 52 -31 119 -6 51 -17 102 -24 113 -7 11 -16 52
-20 90 -12 120 -14 127 -30 145 -10 11 -15 36 -15 71 0 69 -17 165 -35 193 -7
12 -15 66 -18 124 -4 75 -10 110 -23 130 -15 22 -19 60 -26 207 -5 122 -12
191 -22 215 -11 25 -18 106 -26 280 -12 267 -18 336 -31 362 -9 18 -13 228 -4
228 3 0 28 -16 56 -35z"/>
<path d="M18050 17866 c0 -14 -5 -37 -10 -51 -6 -15 -7 -56 -4 -96 7 -68 7
-69 35 -69 25 0 29 4 29 28 0 46 25 72 71 72 36 0 40 2 37 22 -2 17 -12 24
-38 29 -53 8 -80 29 -80 61 0 21 -5 28 -20 28 -15 0 -20 -7 -20 -24z"/>
<path d="M26694 19696 c-3 -14 -1 -40 5 -57 6 -18 11 -58 11 -89 0 -91 9 -120
36 -120 27 0 32 27 36 185 l3 100 -42 3 c-38 3 -43 1 -49 -22z"/>
<path d="M26711 18947 c-8 -10 -8 -42 -1 -113 5 -54 10 -127 10 -161 0 -60 1
-63 24 -63 l24 0 7 164 c4 91 4 169 0 175 -9 15 -50 14 -64 -2z"/>
<path d="M26716 15478 c-15 -108 -24 -376 -14 -433 15 -85 15 -85 42 -85 19 0
27 7 33 28 11 38 10 416 -1 480 -8 45 -12 52 -31 52 -19 0 -24 -7 -29 -42z"/>
<path d="M4990 13681 c0 -15 -5 -41 -10 -57 -6 -17 -7 -59 -3 -104 8 -71 9
-75 33 -75 24 0 25 4 34 75 6 51 5 84 -3 105 -6 17 -11 43 -11 58 0 20 -5 27
-20 27 -15 0 -20 -7 -20 -29z"/>
<path d="M5843 12192 c-7 -11 -8 -32 -4 -53 5 -27 13 -36 41 -45 26 -9 36 -18
40 -39 6 -32 30 -51 54 -42 24 9 21 69 -4 85 -29 18 -24 36 14 50 26 10 33 17
29 32 -7 28 -31 32 -53 10 -25 -25 -41 -25 -68 0 -26 25 -34 25 -49 2z"/>
<path d="M25504 11909 c-3 -6 -22 -9 -40 -7 -23 3 -34 0 -34 -9 0 -7 9 -13 20
-13 16 0 20 -7 20 -34 0 -18 -7 -39 -15 -46 -12 -10 -13 -15 -4 -20 6 -4 14
-36 18 -71 4 -35 10 -70 14 -76 13 -21 44 -15 50 10 9 37 12 251 4 265 -10 15
-24 16 -33 1z"/>
<path d="M24530 10231 c0 -33 -15 -49 -57 -57 -27 -5 -32 -12 -38 -48 -15 -86
-12 -101 16 -104 27 -3 39 15 39 64 0 17 8 22 41 27 22 3 43 8 46 11 3 3 2 35
-2 71 -6 55 -10 65 -26 65 -14 0 -19 -7 -19 -29z"/>
<path d="M22324 7706 c-3 -8 -4 -25 -2 -38 2 -18 11 -24 43 -30 22 -4 55 -10
73 -14 40 -8 62 8 62 45 0 42 -17 51 -97 51 -55 0 -75 -4 -79 -14z"/>
<path d="M18264 6495 c-5 -19 -13 -25 -35 -25 -35 0 -38 -19 -6 -47 34 -31 57
-35 85 -17 15 10 35 14 51 11 32 -7 76 13 76 33 0 11 -17 16 -65 20 -58 4 -65
7 -68 28 -5 30 -30 28 -38 -3z"/>
</g>
</svg>
