<svg width="75" height="75" viewBox="0 0 75 75" fill="none" xmlns="http://www.w3.org/2000/svg">
<path fill-rule="evenodd" clip-rule="evenodd" d="M75 10C75 4.47715 70.5228 0 65 0H10C4.47715 0 0 4.47715 0 10V65C0 70.5228 4.47715 75 9.99999 75H26.4274C17.1064 75 9.02124 68.5612 6.93488 59.4767L2.82882 41.5981C1.10097 34.0747 3.85699 26.2285 9.91012 21.4382L24.7529 9.69202C31.9504 3.99615 42.1009 3.93051 49.3715 9.5328L64.4961 21.187C70.8626 26.0927 73.674 34.3329 71.6335 42.1069L66.9167 60.0775C64.609 68.8698 56.6622 75 47.572 75H65C70.5228 75 75 70.5228 75 65V10Z" fill="white"/>
</svg>
